<svg xmlns="http://www.w3.org/2000/svg" viewBox="0 0 500 500"><g id="freepik--character-2--inject-238"><g id="freepik--Character--inject-238"><path d="M142.92,128.32c-1.23-4.24-3.78-6.92-17.53-7.47s-27,1.63-31.2,7.33c-2.84,3.88-5.57,13.78-2.79,14.51s44.49-.42,48.82-2.91S142.92,128.32,142.92,128.32Z" style="fill:#6BBCFF"></path><path d="M108,130.37a8.52,8.52,0,0,0-7.64-1.55c-4.26,1.35-7.71,5.06-8.93,14.92s-.86,40.18,1.43,46.26,10.7,8.9,20.81,8.1,25.57-3.23,30.41-8.1.61-52.39-2.48-60.17Z" style="fill:#6BBCFF"></path><path d="M108,130.37a8.52,8.52,0,0,0-7.64-1.55c-4.26,1.35-7.71,5.06-8.93,14.92s-.86,40.18,1.43,46.26,10.7,8.9,20.81,8.1,25.57-3.23,30.41-8.1.61-52.39-2.48-60.17Z" style="opacity:0.2"></path><g id="freepik--character--inject-238"><path d="M102.55,271.77c.18-8.82,2.84-15.37,3-17.82,0,0-.65-52.5-.65-61l44.76-1.82s-.62,52.63-.62,59.92-1.09,38.32-2.25,52.6h0l-.13,4.69-10,3.11a73.44,73.44,0,0,0,0-8c-.19-6.66-4.68-29.74-5.1-35.6-.54-7.58.67-10.65.52-15.71S129,213.87,129,213.87s-5.6,32.56-7,43.62c-1.6,12.67-6.73,45.87-6.74,53.59,0,1.38,0,3,0,4.72,0,4.18-.11,5.28.56,6.89,1.17,2.83-8.84,4.61-9.31,2.6l-1.07-8.3v-.24h0v-5.26C105.45,303.62,102.28,284.57,102.55,271.77Z" style="fill:#ffa8a7"></path><path d="M166.26,321.43a3.39,3.39,0,0,1-.14,2.47c-.35.72-4.12,2.85-9.22,2.51a21.37,21.37,0,0,1-10.54-3.68c-1.94-1.29-4-1.53-6.49-1.68s-5.83-1.4-6.39-2.58a5.59,5.59,0,0,1,.09-3.21Z" style="fill:#37474f"></path><path d="M145.69,305.52l.41-.08a1.69,1.69,0,0,1,.67,0,1.35,1.35,0,0,1,.63.43,12,12,0,0,1,1.3,2c1.07,1.74,3.31,3.19,5.76,4.5,1.66.9,3.29,1.59,5,2.37s4.08,1.27,5.46,2.19c2,1.35,2.25,4.73,0,6.07-2,1.16-7.14,2.41-12.57.87-3-.84-6.23-4-10.11-4.3-2.46-.19-7.13-.88-8.71-2.76-.59-.83.19-3.46.84-5.73.7-2.48,1.54-6.37,2.36-6.15,0,.49-.06.61.26.94s.71.51,1,.8a6.47,6.47,0,0,1,1.37,2,1.45,1.45,0,0,0,.7.76c.41.15.72-.11,1.09-.27a2.13,2.13,0,0,1,1.47-.11,9.12,9.12,0,0,0-.26-1.46.94.94,0,0,1,0-.47.77.77,0,0,1,.32-.35A7.9,7.9,0,0,1,145.69,305.52Z" style="fill:#455a64"></path><path d="M125.53,335.87a4.08,4.08,0,0,1-.12,2.74c-.36.56-2.4,2.31-6.11,2.57-3.54.26-6.7-.22-8.78-1.54s-3.09-2.78-3.28-4.79,0-4-.94-5.52-2.3-3.05-2.61-3.82a7.84,7.84,0,0,1,0-4.11Z" style="fill:#37474f"></path><path d="M115.84,318.26a7.83,7.83,0,0,0,.41,2.24,20.07,20.07,0,0,0,2.17,4.44A17.82,17.82,0,0,0,119.9,327c1.07,1.28,2.4,2.32,3.53,3.54a7.31,7.31,0,0,1,2.19,4.35c.15,2.78-2.87,3.72-5.19,4.13a17,17,0,0,1-7.54-.37,6.94,6.94,0,0,1-5.08-5.54c-.13-.77-.08-1.56-.17-2.33a10.87,10.87,0,0,0-2.16-4.86,15.26,15.26,0,0,1-1.66-2.65c-.72-1.72-.14-3.65.32-5.36.4-1.48.85-3.15,1.38-3,0,.76,0,.84.54,1.36.7.66.73,1.65,1.46,2.23a10.34,10.34,0,0,1-.51-2,1.12,1.12,0,0,1,.15-.78,2.14,2.14,0,0,1,.86-.46,17.53,17.53,0,0,1,3.37-.77,10.38,10.38,0,0,1,3.29,0,1.46,1.46,0,0,1,.83.48,1.62,1.62,0,0,1,.29.95C115.85,316.37,115.82,317.52,115.84,318.26Z" style="fill:#455a64"></path><path d="M118.79,325.52c-1-.77-3.35-.78-4.62-.65a7.68,7.68,0,0,0-3.6,1.27.83.83,0,0,1-1.06-.09h0a.77.77,0,0,1,.08-1.18,7.76,7.76,0,0,1,4-1.5c3.12-.22,4,.31,4,.31S119.1,324.6,118.79,325.52Z" style="fill:#f5f5f5"></path><path d="M121.17,328.37c-1.3-.77-3.85-.66-5.11-.53a7.21,7.21,0,0,0-3.51,1.34.83.83,0,0,1-1.06-.09h0a.77.77,0,0,1,.08-1.18,8.07,8.07,0,0,1,4.14-1.62c3.12-.22,3.93.42,3.93.42A2.57,2.57,0,0,1,121.17,328.37Z" style="fill:#f5f5f5"></path><path d="M112.4,320.39a7.67,7.67,0,0,1,3.92.32c.55.31.91,1.18.56,1.4a7.33,7.33,0,0,0-3.47-.48,10.32,10.32,0,0,0-3.38.93c-.26.12-.58.28-.86.44a.74.74,0,0,1-1-.32h0a.69.69,0,0,1,.27-.89A9.9,9.9,0,0,1,112.4,320.39Z" style="fill:#f5f5f5"></path><path d="M152.16,311a2.32,2.32,0,0,0-1.83-1.22c-1.12-.21-3.1.62-4.33,1.64a.92.92,0,0,0,.13,1.52h0a.92.92,0,0,0,1.05-.12A7.07,7.07,0,0,1,152.16,311Z" style="fill:#f5f5f5"></path><path d="M155.63,313a2.62,2.62,0,0,0-2.15-1.11,8.21,8.21,0,0,0-4.75,1.77.9.9,0,0,0,.13,1.47h0a.88.88,0,0,0,1-.11A7,7,0,0,1,155.63,313Z" style="fill:#f5f5f5"></path><path d="M159.47,314.74a2.93,2.93,0,0,0-2.24-1,7.86,7.86,0,0,0-4.54,1.79.9.9,0,0,0,.12,1.47h0a.88.88,0,0,0,1-.11A6.73,6.73,0,0,1,159.47,314.74Z" style="fill:#f5f5f5"></path><path d="M149.71,191.11s.6,37.08.67,43.59,0,19,0,25.39c0,0-1.65,2.78-11.06,2.77s-10.77-2.61-10.77-2.61l-1.39-30-2.59,31.14a16.87,16.87,0,0,1-13.15,2.52c-7.75-1.67-8.89-4-8.89-4l1.52-68.71Z" style="fill:#6BBCFF"></path><path d="M149.71,191.11s.6,37.08.67,43.59,0,19,0,25.39c0,0-1.65,2.78-11.06,2.77s-10.77-2.61-10.77-2.61l-1.39-30-2.59,31.14a16.87,16.87,0,0,1-13.15,2.52c-7.75-1.67-8.89-4-8.89-4l1.52-68.71Z" style="fill:#fff;opacity:0.6000000000000001"></path><path d="M127.16,230.27l1.38-12.59s6.46-1.57,10.78-4.82a20.43,20.43,0,0,1-4.91,4.3c-2.62,1.47-3.87,2.08-3.87,2.08l-1.89,12.18-.33,23.74Z" style="opacity:0.1"></path><path d="M103.48,197.53c6.15,4.48,34,9.44,46.92,0,0,0-.3-36.1-1.31-55.21-.05-.87-.11-1.71-.19-2.53,0-.27-.07-.54-.1-.81a26.43,26.43,0,0,0-.66-3.39c0-.18-.1-.36-.16-.55-.13-.41-.26-.82-.42-1.21-.09-.21-.18-.43-.28-.63s-.17-.38-.27-.57a.47.47,0,0,0,0-.1c-.1-.19-.21-.37-.31-.54s-.23-.39-.37-.58-.25-.36-.37-.52a6.06,6.06,0,0,0-.47-.54,5.56,5.56,0,0,0-.47-.5l-.34-.31a2.3,2.3,0,0,0-.34-.28,5.63,5.63,0,0,0-.46-.36,11.31,11.31,0,0,0-1.63-1l-.48-.22-.12,0-.58-.22a9,9,0,0,0-1-.32l-1.08-.28-1.38,0-1,0-1.1,0c-4.83.22-11.77,1-17.33,1.71l-1.1.15-1,.11c-3.82.5-6.66.92-7.09,1h-.06c-1.25.31-2.41.61-3.34.89-2.56.75-.66.11-1.22,2.58-1.65,7.25.27,33.62.27,33.62Z" style="fill:#f5f5f5"></path><path d="M194.05,94c-6-3.77-7.25-1.47-6.64,4a24.57,24.57,0,0,1-.11,6.9,12.26,12.26,0,0,0-1.65-3,2.42,2.42,0,0,0-3.2-.76c-.43.31.42,1.31.82,3.39.51,2.68,0,4.34,1.26,7a4.64,4.64,0,0,1,.24,3.22c-1.5,5.43-5.46,12.87-9.85,20.65-7-1.94-13.93-4.39-21.31-6.47-11.39-3.21-15-2.22-17.82.8l4.06,11.53L176.34,150c2.86.78,6.63-.17,8-2.78,4-7.44,7-17.38,9.23-25.07,1.35-4.57,2.48-8.74,3.2-11.62C199.28,100.53,197.79,96.33,194.05,94Z" style="fill:#ffa8a7"></path><path d="M136.54,126.84c4.34-.49,7.91-1,14.57.72s23.44,7.18,23.44,7.18l8.59-15.4a16.55,16.55,0,0,0,10.57,2.43A195.82,195.82,0,0,1,188,141.29c-2.85,7.39-4.33,9.61-6.44,10.24s-35.28-7-35.28-7Z" style="fill:#37474f"></path><path d="M103.48,197.53c6.15,4.48,34,9.44,46.92,0,0,0-.3-36.1-1.31-55.21-.05-.87-.11-1.71-.19-2.53,0-.27-.07-.54-.1-.81a26.43,26.43,0,0,0-.66-3.39c0-.18-.1-.36-.16-.55-.13-.41-.26-.82-.42-1.21-.09-.21-.18-.43-.28-.63s-.17-.38-.27-.57a.47.47,0,0,0,0-.1c-.1-.19-.21-.37-.31-.54s-.23-.39-.37-.58-.25-.36-.37-.52a6.06,6.06,0,0,0-.47-.54,5.56,5.56,0,0,0-.47-.5l-.34-.31a2.3,2.3,0,0,0-.34-.28,5.63,5.63,0,0,0-.46-.36,11.31,11.31,0,0,0-1.63-1l-.48-.22-.12,0-.58-.22a9,9,0,0,0-1-.32l-1.08-.28-1.38,0-1,0-1.1,0c-4.83.22-11.77,1-17.33,1.71l-1.1.15-1,.11c-3.82.5-6.66.92-7.09,1h-.06c-1.25.31-2.41.61-3.34.89-2.56.75-.66.11-1.22,2.58-1.65,7.25.27,33.62.27,33.62Z" style="fill:#455a64"></path><path d="M91.09,173c3.54-35,6.76-41.67,16.88-42.63,3.33,3.21,3.24,12.39.37,17.9,0,0-4.3,14.69-5.81,27.1-.85,7-2.64,21.45-1.9,27.32a4.3,4.3,0,0,0,1.46,2.68c2.12,1.85,2.31,3.51,3.78,5.65,1.16,1.68,2.28,2.23,2,2.66a2.32,2.32,0,0,1-3.1.57,12.06,12.06,0,0,1-2.61-2,23.71,23.71,0,0,0,2.56,6.1c2.65,4.58,2.4,7.09-4.28,6.08-4.19-.63-7.11-3.75-8.78-13.46a103.55,103.55,0,0,1-1.27-10.82A178.07,178.07,0,0,1,91.09,173Z" style="fill:#ffa8a7"></path><path d="M108.92,129.83s-5.76.55-7.91,1.92c-3.34,2.13-4.88,6.44-6.49,13.43S90,165.61,89.35,171.07s.17,21.69.17,21.69a13.15,13.15,0,0,0,11.81.33s1.58-15.53,2.15-20.09c.46-3.62,3.26-15.85,4.81-19.5C108.29,153.5,113.29,139.17,108.92,129.83Z" style="fill:#37474f"></path><path d="M123.54,98.3A12.26,12.26,0,1,0,135.79,86,12.24,12.24,0,0,0,123.54,98.3Z" style="fill:#263238"></path><path d="M114.61,107s2,9.33,2.78,10.87a4.25,4.25,0,0,0,2.44,2l-.14-6.57Z" style="fill:#263238"></path><path d="M117.1,93.64A4.63,4.63,0,0,0,113.29,95c-1.63,1.68-.72,6.91,1.32,12l3.74.43Z" style="fill:#263238"></path><path d="M119.47,107.45c-.75.44-1.82-1-2.75-2s-3.94-2.29-5.45.89,1.33,7.51,3.71,8.25c4.1,1.29,4.71-1.34,4.71-1.34l.28,15.07c4.29,7.77,18.81,3.79,13.37-1.36v-3.82a25.66,25.66,0,0,0,5.52.29c3-.47,4.91-2.85,5.82-6.11,1.47-5.24,2-9.47.78-19.77-1.36-11.3-14.5-11.41-21.59-7S119.47,107.45,119.47,107.45Z" style="fill:#ffa8a7"></path><path d="M117.72,87.47a36,36,0,0,1,7.74-2.33c5.73-1.24,11.57-2.39,16.8-5a3.57,3.57,0,0,1,2.05-.59c1.38.18,2,1.85,2,3.24a11.42,11.42,0,0,1-.5,3.81,2.19,2.19,0,0,1,3.08.05,3.76,3.76,0,0,1,.89,3.22,8,8,0,0,1-4.62,5.84,18.32,18.32,0,0,1-7.55,1.5,52,52,0,0,1-10.79-.82,8,8,0,0,0-2.61-.19,2.37,2.37,0,0,0-2,1.55c-.39,1.43-.78,11.13-2.77,11.17-.38,0-1.79-2.44-2.71-3.31-1.16-1.09-2.32-9.4-2.53-10.94a.67.67,0,0,0-.15-.32c-1.31-1.83.22-4.91,1.83-5.91A16.34,16.34,0,0,1,117.72,87.47Z" style="fill:#263238"></path><path d="M133.33,123.17s-6.73-1.35-9.08-2.6a7.73,7.73,0,0,1-3.25-3.22,10.65,10.65,0,0,0,1.84,3.8c1.72,2.19,10.49,3.81,10.49,3.81Z" style="fill:#f28f8f"></path><path d="M131.71,105.76a1.35,1.35,0,1,1-1.35-1.4A1.37,1.37,0,0,1,131.71,105.76Z" style="fill:#263238"></path><path d="M130.28,100.67l-2.88,1.6a1.72,1.72,0,0,1,.67-2.3A1.61,1.61,0,0,1,130.28,100.67Z" style="fill:#263238"></path><path d="M132.72,115.08l3.07,1.15a1.61,1.61,0,0,1-2.09,1A1.71,1.71,0,0,1,132.72,115.08Z" style="fill:#f28f8f"></path><path d="M143.73,101.8l-2.63-2a1.6,1.6,0,0,1,2.29-.35A1.75,1.75,0,0,1,143.73,101.8Z" style="fill:#263238"></path><path d="M142.92,105.38a1.37,1.37,0,0,1-1.35,1.4,1.39,1.39,0,0,1-1.35-1.41,1.35,1.35,0,1,1,2.7,0Z" style="fill:#263238"></path><polygon points="136.05 104.1 136.5 112.21 140.73 110.77 136.05 104.1" style="fill:#f28f8f"></polygon></g><path d="M110.84,129.55s3.15,6.86,1.61,19.39-8,23.81-8,23.81l-.27,7.45s7.53-5.33,12.39-18.11,3.54-26.18,1.59-33.51A8.62,8.62,0,0,0,110.84,129.55Z" style="fill:#6BBCFF"></path><path d="M110.84,129.55s3.15,6.86,1.61,19.39-8,23.81-8,23.81l-.27,7.45s7.53-5.33,12.39-18.11,3.54-26.18,1.59-33.51A8.62,8.62,0,0,0,110.84,129.55Z" style="opacity:0.4"></path><path d="M134.21,126.94c4.42,2.46,16.2,13,15.87,47.59,0,0,5.36-12.25,2-28.6-2.66-12.84-7.26-17.67-10.48-19.4C141.57,126.53,136,124.86,134.21,126.94Z" style="fill:#6BBCFF"></path><path d="M134.21,126.94c4.42,2.46,16.2,13,15.87,47.59,0,0,5.36-12.25,2-28.6-2.66-12.84-7.26-17.67-10.48-19.4C141.57,126.53,136,124.86,134.21,126.94Z" style="opacity:0.4"></path></g></g></svg>