<svg width="89" height="121" viewBox="0 0 89 121" fill="none" xmlns="http://www.w3.org/2000/svg">
<path d="M33.5813 53.7038C32.9693 58.7349 32.2168 63.7232 31.374 68.7287C30.5313 73.7341 29.5581 78.7054 28.4545 83.7023C28.1736 84.9729 27.9127 86.1667 27.5817 87.4969C27.391 88.1961 27.2004 88.9039 26.9897 89.5861L26.2774 91.5899C25.2725 94.1408 24.0727 96.6332 22.6857 99.0512C21.348 101.422 19.8832 103.718 18.2913 105.941C16.7104 108.174 14.9924 110.334 13.1445 112.413L7.53613 109.676C9.54269 105.114 11.6295 100.458 13.2648 95.8791C14.0875 93.5853 14.8199 91.3085 15.3717 89.0574L15.7329 87.4031L15.9938 85.8L16.5055 82.1504C17.8197 72.276 19.0538 62.2907 20.5988 52.4077L33.5813 53.7038Z" fill="#EEC1BB"/>
<path d="M34.6645 47.1799C40.3029 52.2962 37.5639 72.8381 37.5639 72.8381L16.0938 63.876C16.6248 59.9935 17.3917 56.137 18.3913 52.3217C19.846 46.2078 29.1364 42.2171 34.6645 47.1799Z" fill="#6BBCFF"/>
<path opacity="0.3" d="M34.6645 47.1799C40.3029 52.2962 37.5639 72.8381 37.5639 72.8381L16.0938 63.876C16.6248 59.9935 17.3917 56.137 18.3913 52.3217C19.846 46.2078 29.1364 42.2171 34.6645 47.1799Z" fill="white"/>
<path d="M9.58309 107.033L2.31934 112.805L10.3456 117.589C10.3456 117.589 16.6462 113.752 14.2484 108.823L9.58309 107.033Z" fill="#FCD4CF"/>
<path d="M2.64019 119.499L4.58655 119.934C5.18932 120.072 5.82519 120.065 6.42372 119.915C7.02225 119.764 7.56009 119.476 7.97764 119.082L10.3454 117.589L2.31914 112.806L0.493167 115.364C0.256234 115.748 0.124364 116.174 0.107354 116.608C0.0903437 117.042 0.188633 117.474 0.394915 117.871C0.601197 118.268 0.910176 118.621 1.29889 118.903C1.6876 119.185 2.14605 119.389 2.64019 119.499Z" fill="#FCD4CF"/>
<path d="M70.0407 48.3139C67.8034 74.9101 74.2144 100.244 74.4853 105.83L28.5752 109.24C18.0407 78.4403 20.1476 57.8814 21.7328 49.8829C21.9496 48.7509 22.5341 47.6929 23.4204 46.8281C24.3067 45.9633 25.4596 45.3261 26.7492 44.9884C27.5318 44.7837 28.4046 44.5705 29.3377 44.3573C30.5617 44.0759 31.886 43.8031 33.2705 43.5473C34.033 43.4023 34.8156 43.2744 35.6082 43.1465C42.1078 42.3389 48.6566 41.8492 55.2223 41.6798C56.4563 41.6372 57.7104 41.6287 58.9344 41.6287C60.1585 41.6287 61.1818 41.6287 62.2352 41.6884H63.1282C64.099 41.7248 65.0514 41.9268 65.9287 42.2821C66.806 42.6375 67.5903 43.1391 68.2351 43.7571C68.8799 44.3751 69.372 45.097 69.6821 45.8797C69.9923 46.6625 70.1143 47.4903 70.0407 48.3139Z" fill="#6BBCFF"/>
<path opacity="0.4" d="M70.0407 48.3139C67.8034 74.9101 74.2144 100.244 74.4853 105.83L28.5752 109.24C18.0407 78.4403 20.1476 57.8814 21.7328 49.8829C21.9496 48.7509 22.5341 47.6929 23.4204 46.8281C24.3067 45.9633 25.4596 45.3261 26.7492 44.9884C27.5318 44.7837 28.4046 44.5705 29.3377 44.3573C30.5617 44.0759 31.886 43.8031 33.2705 43.5473C34.033 43.4023 34.8156 43.2744 35.6082 43.1465C42.1078 42.3389 48.6566 41.8492 55.2223 41.6798C56.4563 41.6372 57.7104 41.6287 58.9344 41.6287C60.1585 41.6287 61.1818 41.6287 62.2352 41.6884H63.1282C64.099 41.7248 65.0514 41.9268 65.9287 42.2821C66.806 42.6375 67.5903 43.1391 68.2351 43.7571C68.8799 44.3751 69.372 45.097 69.6821 45.8797C69.9923 46.6625 70.1143 47.4903 70.0407 48.3139Z" fill="white"/>
<path d="M51.3393 23.142C50.647 28.5652 50.4163 38.4396 55.1718 41.6799C52.0516 44.8094 47.9281 48.5016 40.4938 49.2435C33.0595 49.9854 33.9223 45.5598 35.658 43.1125C42.5104 41.1768 41.8884 36.7768 40.243 32.7179L51.3393 23.142Z" fill="#EEC1BB"/>
<path d="M40.5145 55.0512C40.5145 55.7845 40.1132 56.3643 39.6517 56.3643C39.1902 56.3643 38.829 55.7589 38.8391 55.0341C38.8491 54.3093 39.2404 53.7209 39.6919 53.7295C40.1433 53.738 40.5246 54.3264 40.5145 55.0512Z" fill="white"/>
<path d="M40.5841 61.0198C40.6543 61.7446 40.3332 62.3586 39.8717 62.3927C39.4102 62.4268 38.9888 61.8555 38.9186 61.1307C38.8484 60.4059 39.1794 59.7919 39.641 59.7578C40.1025 59.7237 40.5239 60.295 40.5841 61.0198Z" fill="white"/>
<path opacity="0.2" d="M46.8146 27.0476L40.2432 32.7097C40.6455 33.6512 40.9476 34.6215 41.1461 35.6089C43.7948 35.0887 47.2159 32.3174 47.256 29.9213C47.3136 28.9486 47.164 27.9751 46.8146 27.0476Z" fill="black"/>
<path d="M27.4507 11.4514C27.4507 11.4514 32.9788 9.2514 38.0754 9.87388C44.8977 13.7111 38.3162 16.5251 34.4034 23.594C29.1964 25.7173 31.0324 23.4661 31.0324 23.4661C31.0324 23.4661 23.4276 19.7057 27.4507 11.4514Z" fill="#263238"/>
<path d="M51.2694 15.0504C51.4801 22.3155 52.042 26.562 48.1292 30.5868C42.2299 36.6411 31.3945 34.1085 28.6355 27.0395C26.1473 20.6783 26.2176 9.86591 34.2438 6.37831C36.0103 5.6021 37.9808 5.2225 39.9684 5.27551C41.956 5.32853 43.8947 5.81241 45.6004 6.68123C47.3062 7.55004 48.7223 8.77497 49.7145 10.2397C50.7067 11.7045 51.2419 13.3604 51.2694 15.0504Z" fill="#EEC1BB"/>
<path d="M43.182 9.45698C43.182 9.45698 47.8673 6.1314 52.984 5.6283C60.7394 7.86241 55.2113 12.0066 53.5358 19.6896C49.1415 22.8787 50.245 20.3035 50.245 20.3035C50.245 20.3035 41.7071 18.3082 43.182 9.45698Z" fill="#263238"/>
<path d="M44.8179 10.3089C42.5906 11.895 31.4141 15.6895 24.5617 11.1616C20.5486 8.49262 21.2609 2.12284 27.1903 0.852295C26.7689 1.87555 28.6651 4.97091 35.066 2.83912C41.1459 0.826715 54.2487 0.280978 53.4963 7.10269C52.7438 13.9244 44.8179 10.3089 44.8179 10.3089Z" fill="#263238"/>
<path d="M51.1182 5.70444C51.1182 5.70444 54.5293 4.28893 55.5727 2.29358C57.1177 5.95173 53.1548 6.88971 51.1182 5.70444Z" fill="#263238"/>
<path d="M55.925 22.7329C55.4369 23.5388 54.7664 24.2549 53.9521 24.8402C53.1378 25.4255 52.1956 25.8685 51.1795 26.1438C48.4606 26.8686 47.0159 24.8221 47.6981 22.5965C48.3201 20.6011 50.4772 17.8128 53.2362 18.0601C55.9953 18.3073 57.1089 20.7376 55.925 22.7329Z" fill="#EEC1BB"/>
<path d="M38.5784 18.0262C38.6386 18.6146 38.3176 19.1177 37.8661 19.1518C37.4146 19.1859 36.9932 18.7339 36.933 18.1456C36.8728 17.5572 37.1939 17.0541 37.6454 17.02C38.0968 16.9859 38.5182 17.4378 38.5784 18.0262Z" fill="#263238"/>
<path d="M30.7522 18.597C30.8124 19.1854 30.4914 19.6885 30.0399 19.7226C29.5884 19.7567 29.1671 19.3047 29.1069 18.7164C29.0467 18.128 29.3677 17.6249 29.8192 17.5908C30.2707 17.5567 30.692 18.0086 30.7522 18.597Z" fill="#263238"/>
<path d="M33.2708 18.7419C32.6256 20.6017 31.6838 22.3776 30.4717 24.0202C31.796 24.8729 33.8327 24.3016 33.8327 24.3016L33.2708 18.7419Z" fill="#ED893E"/>
<path d="M40.0626 23.944C39.293 23.9837 38.5407 24.1552 37.8511 24.4483C37.1614 24.7413 36.5486 25.1499 36.0495 25.6494C36.0121 25.6828 35.9912 25.727 35.9912 25.7731C35.9912 25.8191 36.0121 25.8634 36.0495 25.8967C36.0897 25.9267 36.1414 25.9433 36.195 25.9433C36.2485 25.9433 36.3002 25.9267 36.3404 25.8967C36.9087 25.3424 37.6228 24.9099 38.4247 24.6343C39.2266 24.3587 40.0937 24.2479 40.9556 24.3107C41.0081 24.3109 41.0589 24.2944 41.0979 24.2644C41.1368 24.2344 41.1612 24.1931 41.1662 24.1487C41.169 24.1256 41.1662 24.1023 41.158 24.0801C41.1498 24.058 41.1363 24.0375 41.1185 24.02C41.1006 24.0024 41.0787 23.9881 41.0542 23.978C41.0296 23.9679 41.0029 23.9621 40.9756 23.9611C40.6724 23.9334 40.367 23.9277 40.0626 23.944Z" fill="#263238"/>
<path d="M37.384 14.1209C37.3146 14.1366 37.2542 14.1729 37.2135 14.2232C37.1756 14.2549 37.1454 14.2928 37.1249 14.3345C37.1043 14.3762 37.0938 14.421 37.0938 14.4662C37.0938 14.5114 37.1043 14.5562 37.1249 14.5979C37.1454 14.6397 37.1756 14.6775 37.2135 14.7092C37.6959 15.0786 38.2766 15.3429 38.9057 15.4796C39.5348 15.6162 40.1935 15.6211 40.8253 15.4937C40.8769 15.4821 40.9252 15.4616 40.9672 15.4335C41.0091 15.4054 41.0438 15.3703 41.0692 15.3303C41.0946 15.2904 41.1101 15.2464 41.1147 15.2012C41.1194 15.156 41.1131 15.1105 41.0962 15.0674C41.0823 15.0234 41.0582 14.9822 41.0253 14.9462C40.9924 14.9103 40.9514 14.8803 40.9046 14.858C40.8579 14.8358 40.8064 14.8217 40.7531 14.8167C40.6999 14.8116 40.6459 14.8157 40.5946 14.8286C40.0933 14.9227 39.5727 14.913 39.0768 14.8002C38.5809 14.6874 38.1242 14.4749 37.7452 14.1805C37.695 14.1468 37.636 14.1238 37.5732 14.1134C37.5103 14.1031 37.4455 14.1056 37.384 14.1209Z" fill="#263238"/>
<path d="M29.8289 14.3166C29.7633 14.3105 29.697 14.3181 29.6357 14.339C29.5745 14.3598 29.5202 14.3931 29.4777 14.436C29.1618 14.7795 28.7539 15.0539 28.2879 15.2364C27.822 15.4188 27.3115 15.504 26.799 15.4849C26.6968 15.4826 26.5973 15.5128 26.5199 15.5695C26.4424 15.6262 26.3926 15.7053 26.3801 15.7915C26.3675 15.8777 26.3932 15.9648 26.4521 16.0358C26.511 16.1068 26.5989 16.1566 26.6986 16.1756C27.3458 16.2104 27.9932 16.1115 28.5855 15.8873C29.1779 15.663 29.6974 15.3202 30.0998 14.888C30.1349 14.8528 30.1615 14.812 30.178 14.768C30.1945 14.7241 30.2006 14.6778 30.1959 14.6318C30.1912 14.5858 30.1759 14.5411 30.1508 14.5002C30.1257 14.4592 30.0913 14.423 30.0496 14.3934C29.986 14.3507 29.9095 14.3241 29.8289 14.3166Z" fill="#263238"/>
<path d="M69.3879 47.0359C70.3912 47.9568 71.1938 48.7413 72.0466 49.6537C72.8994 50.5661 73.712 51.4018 74.5147 52.2886C76.1299 54.0708 77.6549 55.9127 79.1297 57.8142C82.227 61.7151 84.7697 65.9141 86.7045 70.3235C87.198 71.5464 87.6034 72.7937 87.9184 74.0584C88.0087 74.3825 88.0689 74.7321 88.1392 75.0646L88.2395 75.5763V75.7809C88.2395 75.9344 88.2395 76.0879 88.2997 76.2414C88.3246 76.5508 88.3246 76.8614 88.2997 77.1708C88.1875 78.2508 87.7636 79.2906 87.0657 80.198C86.608 80.7976 86.0504 81.3376 85.4103 81.8011C84.5802 82.3942 83.6629 82.893 82.6813 83.2848C81.9318 83.5936 81.1613 83.8641 80.3738 84.0949C78.9994 84.4954 77.595 84.8173 76.1701 85.0585C73.5223 85.5246 70.8409 85.8408 68.1438 86.005C65.5179 86.19 62.8816 86.247 60.248 86.1755L59.4053 80.7267C64.0705 79.3879 68.9063 78.1685 73.1602 76.6592C74.2137 76.284 75.227 75.8832 76.0998 75.4995C76.481 75.3251 76.8495 75.1315 77.2034 74.9197C77.4944 74.7491 77.675 74.5615 77.5847 74.5786C77.4117 74.6802 77.2648 74.8108 77.1533 74.9623C76.7992 75.4183 76.5885 75.9438 76.5413 76.4887C76.5413 76.6677 76.5413 76.8468 76.5413 77.0174V77.2817L76.451 77.0088C76.3908 76.8212 76.3507 76.6422 76.2704 76.4375C75.9705 75.6221 75.6154 74.822 75.2069 74.0414C74.3337 72.3211 73.3213 70.6543 72.177 69.053C71.0032 67.3476 69.6989 65.7018 68.3345 64.0561C66.97 62.4103 65.5253 60.7646 64.0705 59.1445L61.8432 56.7398L59.626 54.4289L69.3879 47.0359Z" fill="#EEC1BB"/>
<path d="M63.2482 41.715C71.1139 41.8259 81.3073 55.8274 81.3073 55.8274L65.1645 67.2282C65.1645 67.2282 56.9074 60.6026 53.9779 54.2243C50.7874 47.2747 53.6869 41.5871 63.2482 41.715Z" fill="#6BBCFF"/>
<path opacity="0.4" d="M63.2482 41.715C71.1139 41.8259 81.3073 55.8274 81.3073 55.8274L65.1645 67.2282C65.1645 67.2282 56.9074 60.6026 53.9779 54.2243C50.7874 47.2747 53.6869 41.5871 63.2482 41.715Z" fill="white"/>
<path d="M54.2188 40.2728C54.2188 40.2728 51.9814 44.9713 40.1729 49.269C42.5105 50.5907 44.186 54.2318 44.186 54.2318C44.186 54.2318 59.5763 48.7403 57.6399 41.1852C56.5657 40.7246 55.41 40.4164 54.2188 40.2728Z" fill="white"/>
<path d="M36.6819 54.2921C36.6819 54.2921 37.6852 50.7704 40.2034 49.2696C38.7086 48.3146 36.1301 45.1766 36.8124 42.5161C35.8465 42.5814 34.8969 42.7652 33.9931 43.0618C33.9931 43.0618 30.1406 48.9285 36.6819 54.2921Z" fill="white"/>
<path d="M55.6642 92.0152C55.3618 92.0114 55.0685 91.9271 54.8255 91.7741C54.5825 91.6212 54.4021 91.4072 54.3098 91.1625L30.9835 35.3779C30.8504 35.0726 30.8655 34.7349 31.0255 34.4391C31.1854 34.1432 31.477 33.9135 31.8363 33.8004C32.1955 33.6873 32.5928 33.7002 32.9409 33.8361C33.289 33.972 33.5593 34.2199 33.6923 34.5252L57.0186 90.3695C57.0822 90.5206 57.1101 90.681 57.1007 90.8413C57.0912 91.0016 57.0446 91.1588 56.9635 91.3038C56.8824 91.4488 56.7684 91.5787 56.6281 91.6862C56.4878 91.7936 56.3239 91.8765 56.1458 91.9299C55.9913 91.9791 55.8289 92.0078 55.6642 92.0152Z" fill="#263238"/>
<path d="M34.1908 43.0665C43.3057 40.3468 47.5018 30.4121 43.5632 20.8766C39.6246 11.3412 29.0426 5.81598 19.9278 8.53566C10.8129 11.2553 6.61671 21.1901 10.5553 30.7255C14.494 40.2609 25.0759 45.7862 34.1908 43.0665Z" fill="#263238"/>
<path d="M34.7132 42.5794C43.4529 39.9388 47.297 30.0497 43.2992 20.4917C39.3014 10.9336 28.9756 5.32593 20.2358 7.96659C11.4961 10.6073 7.652 20.4963 11.6498 30.0543C15.6476 39.6124 25.9734 45.2201 34.7132 42.5794Z" fill="#6BBCFF"/>
<path d="M16.7172 28.5063C16.1123 28.4944 15.518 28.369 14.9769 28.139C14.4357 27.909 13.9611 27.5802 13.587 27.1761C13.5564 27.1411 13.5344 27.1012 13.5224 27.0588C13.5103 27.0165 13.5085 26.9725 13.5169 26.9295C13.5253 26.8865 13.5439 26.8454 13.5714 26.8087C13.599 26.7719 13.635 26.7402 13.6773 26.7156C13.7617 26.664 13.8664 26.6422 13.9694 26.6549C14.0723 26.6677 14.1654 26.7139 14.2291 26.7838C14.6591 27.2322 15.2418 27.5566 15.8971 27.7126C16.5525 27.8686 17.2487 27.8486 17.8902 27.6554C18.5317 27.4621 19.0872 27.105 19.4807 26.633C19.8742 26.161 20.0864 25.5972 20.0882 25.0187C20.0827 24.9296 20.1185 24.8422 20.1878 24.7752C20.2572 24.7083 20.3547 24.6671 20.4594 24.6606C20.5116 24.6571 20.5641 24.6626 20.6138 24.6766C20.6635 24.6907 20.7093 24.7131 20.7486 24.7426C20.7879 24.772 20.8199 24.8078 20.8426 24.8479C20.8653 24.888 20.8783 24.9316 20.8808 24.9761C20.9001 25.7027 20.6457 26.4156 20.1548 27.0107C19.6639 27.6059 18.9622 28.0522 18.1519 28.2846C17.6932 28.4312 17.2072 28.5063 16.7172 28.5063Z" fill="white"/>
<path d="M32.7688 23.654C32.1643 23.6404 31.5707 23.5142 31.0299 23.2843C30.489 23.0545 30.0141 22.7266 29.6386 22.3238C29.5795 22.2523 29.5558 22.164 29.5727 22.0778C29.5896 21.9916 29.6457 21.9146 29.7289 21.8633C29.7709 21.8371 29.8186 21.8183 29.8692 21.8079C29.9198 21.7976 29.9724 21.796 30.0238 21.8031C30.0752 21.8102 30.1244 21.826 30.1685 21.8496C30.2126 21.8731 30.2507 21.9038 30.2807 21.94C30.713 22.3874 31.2972 22.7105 31.9536 22.8654C32.6099 23.0202 33.3065 22.9993 33.9482 22.8053C34.59 22.6114 35.1458 22.2539 35.5398 21.7816C35.9338 21.3094 36.1469 20.7453 36.1499 20.1664C36.1458 20.122 36.1522 20.0774 36.1688 20.0352C36.1854 19.993 36.2117 19.954 36.2464 19.9206C36.281 19.8872 36.3231 19.8601 36.3703 19.8408C36.4175 19.8215 36.4688 19.8104 36.5211 19.8083C36.5728 19.8048 36.6248 19.8103 36.6739 19.8245C36.723 19.8386 36.7682 19.8612 36.8067 19.8907C36.8452 19.9203 36.8762 19.9562 36.8979 19.9962C36.9195 20.0363 36.9312 20.0797 36.9324 20.1238C36.9524 20.8494 36.6995 21.5614 36.2105 22.1565C35.7215 22.7515 35.022 23.1984 34.2136 23.4323C33.7512 23.5783 33.262 23.6534 32.7688 23.654Z" fill="white"/>
<path d="M24.4522 34.8081C24.3508 34.8084 24.253 34.776 24.1785 34.7174C24.1041 34.6589 24.0585 34.5786 24.0509 34.4926C24.0442 33.4824 24.4074 32.4954 25.0902 31.6684C25.7729 30.8414 26.7414 30.2154 27.8615 29.8772C28.9815 29.539 30.1976 29.5052 31.3413 29.7806C32.4849 30.056 33.4994 30.627 34.2442 31.4143C34.275 31.45 34.2972 31.4905 34.3093 31.5336C34.3215 31.5766 34.3234 31.6213 34.315 31.665C34.3066 31.7086 34.288 31.7505 34.2604 31.7879C34.2327 31.8254 34.1965 31.8579 34.1539 31.8833C34.0682 31.934 33.9627 31.9544 33.8597 31.9401C33.7567 31.9257 33.6643 31.8779 33.6021 31.8066C32.9584 31.137 32.0869 30.6527 31.107 30.4202C30.1271 30.1877 29.0866 30.2181 28.1278 30.5075C27.1691 30.7969 26.339 31.3309 25.751 32.0367C25.1631 32.7424 24.8461 33.5853 24.8435 34.45C24.849 34.5391 24.8132 34.6265 24.7438 34.6934C24.6744 34.7604 24.577 34.8015 24.4723 34.8081H24.4522Z" fill="white"/>
<path d="M14.3788 23.9351C14.3249 23.9343 14.2723 23.9212 14.2264 23.8972C14.1805 23.8732 14.1431 23.8392 14.1179 23.7987C14.1007 23.7696 14.0904 23.7379 14.0877 23.7054C14.0849 23.6729 14.0897 23.6403 14.1018 23.6094C14.114 23.5785 14.1331 23.5499 14.1583 23.5253C14.1834 23.5008 14.214 23.4806 14.2484 23.4661C15.5756 22.7982 16.726 21.9042 17.6272 20.8403C18.5285 19.7765 19.1612 18.5656 19.4855 17.284C19.4915 17.2513 19.5052 17.22 19.5258 17.1918C19.5463 17.1637 19.5733 17.1394 19.6051 17.1203C19.6369 17.1012 19.6729 17.0878 19.711 17.0807C19.749 17.0737 19.7883 17.0732 19.8266 17.0793C19.9032 17.0937 19.9703 17.1329 20.0134 17.1887C20.0565 17.2444 20.0723 17.3123 20.0573 17.3778C19.73 18.7374 19.0672 20.0226 18.1126 21.1485C17.1579 22.2744 15.9332 23.2155 14.5192 23.9096C14.475 23.9262 14.4272 23.9349 14.3788 23.9351Z" fill="white"/>
<path d="M31.9862 18.2141C29.3039 18.2357 26.6989 17.4504 24.6322 15.9971C24.5723 15.9541 24.535 15.8927 24.5284 15.8263C24.5218 15.7599 24.5465 15.6941 24.5971 15.6432C24.6476 15.5923 24.7199 15.5606 24.798 15.555C24.876 15.5494 24.9535 15.5704 25.0134 15.6133C26.2133 16.4372 27.6021 17.0394 29.0911 17.3815C30.5802 17.7236 32.1368 17.7981 33.6617 17.6002C33.6992 17.5934 33.7379 17.5931 33.7757 17.5991C33.8134 17.6051 33.8493 17.6173 33.8815 17.6352C33.9136 17.653 33.9413 17.676 33.963 17.7029C33.9847 17.7298 33.9999 17.7601 34.0078 17.792C34.0157 17.8239 34.0161 17.8569 34.0091 17.8889C34.002 17.921 33.9876 17.9515 33.9666 17.9788C33.9456 18.0062 33.9186 18.0297 33.8869 18.0481C33.8552 18.0665 33.8196 18.0795 33.7821 18.0862C33.1899 18.1793 32.5883 18.2221 31.9862 18.2141Z" fill="white"/>
<path d="M40.1724 26.8695C39.7505 26.842 39.3496 26.7018 39.0271 26.469C38.7046 26.2363 38.4769 25.9228 38.3766 25.5734C38.1617 24.5854 38.3642 23.5646 38.9484 22.6912C38.988 22.6368 39.0502 22.597 39.1226 22.5797C39.195 22.5623 39.2725 22.5686 39.3397 22.5974C40.385 23.0658 41.2022 23.8329 41.6472 24.7633C41.8246 25.1558 41.8123 25.592 41.6131 25.9768C41.414 26.3617 41.044 26.6642 40.5838 26.8183C40.4504 26.8526 40.3118 26.8699 40.1724 26.8695ZM39.3297 23.1772C38.9072 23.8726 38.7729 24.6687 38.9484 25.4369C38.9529 25.5874 38.998 25.7349 39.0803 25.8681C39.1625 26.0014 39.2798 26.1167 39.423 26.2053C39.5661 26.2938 39.7313 26.3531 39.9058 26.3787C40.0803 26.4043 40.2593 26.3954 40.4291 26.3527C40.5988 26.31 40.7548 26.2347 40.8848 26.1326C41.0149 26.0305 41.1155 25.9043 41.1789 25.7638C41.2424 25.6233 41.267 25.4723 41.2507 25.3225C41.2345 25.1727 41.178 25.028 41.0854 24.8997C40.75 24.1792 40.1432 23.5735 39.3598 23.1772H39.3297Z" fill="white"/>
<path d="M47.1957 84.7338L47.9883 86.2602C48.2378 86.7399 48.6372 87.1525 49.143 87.4532C49.6488 87.7538 50.2418 87.931 50.8577 87.9656L55.4126 88.2299L53.9578 79.5408L49.2524 80.8284C48.8001 80.9516 48.3834 81.1544 48.0295 81.4236C47.6756 81.6928 47.3924 82.0224 47.1984 82.3909C47.0043 82.7594 46.9038 83.1584 46.9033 83.5621C46.9029 83.9658 47.0025 84.365 47.1957 84.7338Z" fill="#FCD4CF"/>
<path d="M62.676 80.3501L53.9775 79.4974L55.4323 88.1866C55.4323 88.1866 63.4585 88.1184 64.2411 84.554L62.676 80.3501Z" fill="#FCD4CF"/>
</svg>
