<svg xmlns="http://www.w3.org/2000/svg" viewBox="0 0 500 500"><g id="freepik--background-complete--inject-318"><rect y="382.4" width="500" height="0.25" style="fill:#ebebeb"></rect><rect x="90.46" y="391.92" width="24.87" height="0.25" style="fill:#ebebeb"></rect><rect x="152.33" y="389.21" width="27.5" height="0.25" style="fill:#ebebeb"></rect><rect x="47.67" y="401.21" width="58.11" height="0.25" style="fill:#ebebeb"></rect><rect x="428.3" y="399.53" width="21.6" height="0.25" style="fill:#ebebeb"></rect><rect x="214.79" y="391.14" width="27.93" height="0.25" style="fill:#ebebeb"></rect><rect x="300.67" y="395.31" width="70.22" height="0.25" style="fill:#ebebeb"></rect><path d="M237,337.8H43.91a5.71,5.71,0,0,1-5.7-5.71V60.66A5.71,5.71,0,0,1,43.91,55H237a5.71,5.71,0,0,1,5.71,5.71V332.09A5.71,5.71,0,0,1,237,337.8ZM43.91,55.2a5.46,5.46,0,0,0-5.45,5.46V332.09a5.46,5.46,0,0,0,5.45,5.46H237a5.47,5.47,0,0,0,5.46-5.46V60.66A5.47,5.47,0,0,0,237,55.2Z" style="fill:#ebebeb"></path><path d="M453.31,337.8H260.21a5.72,5.72,0,0,1-5.71-5.71V60.66A5.72,5.72,0,0,1,260.21,55h193.1A5.71,5.71,0,0,1,459,60.66V332.09A5.71,5.71,0,0,1,453.31,337.8ZM260.21,55.2a5.47,5.47,0,0,0-5.46,5.46V332.09a5.47,5.47,0,0,0,5.46,5.46h193.1a5.47,5.47,0,0,0,5.46-5.46V60.66a5.47,5.47,0,0,0-5.46-5.46Z" style="fill:#ebebeb"></path><rect x="48.26" y="63.16" width="6" height="0.75" transform="translate(-14.98 111.24) rotate(-86.87)" style="fill:#f5f5f5"></rect><path d="M34.85,364l-.75,0,.7-12.39.75,0Zm1.39-24.79-.75,0,.69-12.39.75,0Zm1.38-24.79-.75,0,.7-12.39.74,0ZM39,289.66l-.75,0,.69-12.4.75,0Zm1.38-24.79-.75,0,.69-12.4.75,0Zm1.39-24.79L41,240l.69-12.4.75,0Zm1.38-24.79-.75,0,.69-12.4.75,0Zm1.38-24.79-.75,0,.7-12.4.75,0Zm1.39-24.79-.75,0,.69-12.4.75,0Zm1.38-24.79-.75,0,.7-12.4.75,0Zm1.39-24.79-.75,0,.69-12.4.75,0Zm1.38-24.79-.75,0L50,78.9l.75,0Z" style="fill:#f5f5f5"></path><polygon points="33.83 382.42 33.08 382.38 33.41 376.39 34.16 376.43 33.83 382.42" style="fill:#f5f5f5"></polygon><polygon points="58.82 64.05 58.07 64.01 58.26 60.52 59.01 60.56 58.82 64.05" style="fill:#f5f5f5"></polygon><path d="M41.62,371.93l-.75,0,.39-7,.75,0Zm.78-14-.74,0,.39-7,.75,0Zm.79-14-.75,0,.39-7,.75,0Zm.78-14-.75,0,.39-7,.75,0Zm.78-14-.75,0,.39-7,.75,0Zm.78-14-.75,0,.39-7,.75,0Zm.78-14-.75,0,.39-7,.75,0Zm.78-14-.75,0,.4-7,.74,0Zm.78-14-.74,0,.39-7,.75,0Zm.79-14-.75,0,.39-7,.75,0Zm.78-14-.75,0,.39-7,.75,0Zm.78-14-.75,0,.39-7,.75,0ZM51,204l-.75-.05.39-7,.75,0Zm.78-14L51,190l.39-7,.75,0Zm.78-14-.75,0,.4-7,.74,0Zm.79-14-.75,0,.39-7,.75,0Zm.78-14-.75,0,.39-7,.75,0Zm.78-14-.75,0,.39-7,.75,0Zm.78-14-.75,0,.39-7,.75,0Zm.78-14-.75,0,.39-7,.75,0Zm.78-14-.75,0,.39-7,.75,0ZM58,78l-.74,0,.39-7,.75,0Z" style="fill:#f5f5f5"></path><polygon points="41.04 382.42 40.29 382.38 40.48 378.88 41.23 378.93 41.04 382.42" style="fill:#f5f5f5"></polygon><rect x="61.89" y="63.9" width="7.5" height="0.75" transform="translate(-2.13 126.31) rotate(-86.87)" style="fill:#f5f5f5"></rect><path d="M49.48,360.32l-.75,0,.82-14.62.75,0Zm1.63-29.23-.75,0,.82-14.62.75.05Zm1.64-29.23-.75,0,.81-14.61.75,0Zm1.63-29.23-.75,0L54.45,258l.74,0ZM56,243.41l-.75,0,.82-14.62.75,0Zm1.63-29.23-.75,0,.82-14.61.75,0ZM59.27,185l-.74,0,.81-14.61.75,0Zm1.64-29.22-.75,0L61,141.07l.75,0Zm1.63-29.23-.75,0,.82-14.62.74,0Zm1.63-29.23-.75,0,.82-14.61.75,0Z" style="fill:#f5f5f5"></path><rect x="44.33" y="378.28" width="7.5" height="0.75" transform="translate(-332.63 405.97) rotate(-86.87)" style="fill:#f5f5f5"></rect><polygon points="73.1 66.55 72.35 66.5 72.68 60.52 73.43 60.56 73.1 66.55" style="fill:#f5f5f5"></polygon><path d="M56.48,364l-.74,0,.69-12.39.75,0Zm1.39-24.79-.75,0,.69-12.39.75,0Zm1.38-24.79-.75,0L59.2,302l.75,0Zm1.39-24.79-.75,0,.69-12.4.75,0ZM62,264.87l-.75,0,.7-12.4.74,0Zm1.39-24.79-.75,0,.69-12.4.75,0Zm1.38-24.79-.75,0,.69-12.4.75,0Zm1.39-24.79-.75,0,.69-12.4.75,0Zm1.38-24.79-.75,0,.69-12.4.75,0Zm1.38-24.79-.74,0,.69-12.4.75,0Zm1.39-24.79-.75,0,.69-12.4.75,0Zm1.38-24.79-.75,0,.7-12.4.75,0Z" style="fill:#f5f5f5"></path><polygon points="55.46 382.42 54.71 382.38 55.04 376.39 55.79 376.43 55.46 382.42" style="fill:#f5f5f5"></polygon><rect x="77.63" y="62.66" width="5" height="0.75" transform="translate(12.8 139.59) rotate(-86.86)" style="fill:#f5f5f5"></rect><path d="M63.51,367.37l-.75,0,.56-10.07.75.05Zm1.12-20.12-.75-.05.57-10.06.74,0Zm1.13-20.13-.75,0L65.57,317l.75,0ZM66.88,307l-.75,0,.56-10.06.75,0ZM68,286.88l-.75,0,.57-10.06.75,0Zm1.13-20.12-.75,0,.56-10.06.75,0Zm1.12-20.12-.75,0,.56-10.06.75,0Zm1.12-20.12-.74,0,.56-10.06.75,0ZM72.5,206.4l-.75,0,.56-10.07.75.05Zm1.12-20.12-.75-.05.56-10.06.75,0Zm1.13-20.13-.75,0,.56-10.06.75,0ZM75.87,146l-.75,0,.56-10.06.75,0ZM77,125.91l-.75,0,.57-10.06.74,0Zm1.13-20.12-.75,0,.56-10.06.75,0Zm1.12-20.12-.75,0,.56-10.06.75,0Z" style="fill:#f5f5f5"></path><rect x="59.93" y="379.53" width="5" height="0.75" transform="translate(-320.31 421.48) rotate(-86.87)" style="fill:#f5f5f5"></rect><polygon points="87.66 64.05 86.91 64.01 87.1 60.52 87.85 60.56 87.66 64.05" style="fill:#f5f5f5"></polygon><path d="M70.46,371.93l-.74,0,.39-7,.75,0Zm.79-14-.75,0,.39-7,.75,0Zm.78-14-.75,0,.39-7,.75,0Zm.78-14-.75,0,.39-7,.75,0Zm.78-14-.75,0,.39-7,.75,0Zm.78-14-.75,0,.39-7,.75,0Zm.78-14-.75,0,.4-7,.74,0Zm.79-14-.75,0,.39-7,.75,0Zm.78-14-.75,0,.39-7,.75,0Zm.78-14-.75,0,.39-7,.75,0Zm.78-14-.75,0,.39-7,.75,0Zm.78-14-.75,0,.39-7,.75,0Zm.78-14-.75-.05.39-7,.75,0Zm.78-14-.74,0,.39-7,.75,0Zm.79-14-.75,0,.39-7,.75,0Zm.78-14-.75,0,.39-7,.75,0ZM83,148l-.75,0,.39-7,.75,0Zm.78-14L83,134l.39-7,.75,0Zm.78-14-.75,0,.39-7,.75,0Zm.78-14-.75,0L85,99l.75,0Zm.78-14-.74,0,.39-7,.75,0Zm.79-14-.75,0,.39-7,.75,0Z" style="fill:#f5f5f5"></path><polygon points="69.88 382.42 69.13 382.38 69.33 378.88 70.07 378.93 69.88 382.42" style="fill:#f5f5f5"></polygon><rect x="90.73" y="63.9" width="7.5" height="0.75" transform="translate(25.13 155.1) rotate(-86.87)" style="fill:#f5f5f5"></rect><path d="M78.32,360.32l-.75,0,.82-14.62.75,0ZM80,331.09l-.75,0L80,316.43l.75.05Zm1.63-29.23-.75,0,.82-14.61.74,0Zm1.63-29.23-.75,0L83.29,258l.75,0Zm1.63-29.22-.75,0,.82-14.62.75,0Zm1.63-29.23-.74,0,.81-14.61.75,0ZM88.12,185l-.75,0,.81-14.61.75,0Zm1.63-29.22-.75,0,.82-14.61.74,0Zm1.63-29.23-.75,0,.82-14.62.75,0ZM93,97.27l-.75,0,.82-14.61.75,0Z" style="fill:#f5f5f5"></path><polygon points="77.09 382.42 76.34 382.38 76.76 374.89 77.51 374.93 77.09 382.42" style="fill:#f5f5f5"></polygon><polygon points="102.08 64.05 101.33 64.01 101.53 60.52 102.27 60.56 102.08 64.05" style="fill:#f5f5f5"></polygon><path d="M84.89,371.93l-.75,0,.39-7,.75,0Zm.78-14-.75,0,.39-7,.75,0Zm.78-14-.75,0,.39-7,.75,0Zm.78-14-.75,0,.39-7,.75,0ZM88,316l-.75,0,.39-7,.75,0Zm.78-14-.75,0,.4-7,.74,0Zm.79-14-.75,0,.39-7,.75,0Zm.78-14-.75,0,.39-7,.75,0Zm.78-14-.75,0,.39-7,.75,0Zm.78-14-.75,0,.39-7,.75,0Zm.78-14-.75,0,.39-7,.75,0Zm.78-14-.75,0,.39-7,.75,0Zm.78-14-.74-.05.39-7,.74,0Zm.79-14-.75,0,.39-7,.75,0Zm.78-14-.75,0,.39-7,.75,0Zm.78-14-.75,0,.39-7,.75,0Zm.78-14-.75,0,.39-7,.75,0Zm.78-14-.75,0,.39-7,.75,0ZM99,120l-.75,0,.39-7,.75,0Zm.78-14L99,106l.39-7,.74,0Zm.79-14-.75,0,.39-7,.75,0Zm.78-14-.75,0,.39-7,.75,0Z" style="fill:#f5f5f5"></path><polygon points="84.3 382.42 83.55 382.38 83.75 378.88 84.5 378.93 84.3 382.42" style="fill:#f5f5f5"></polygon><rect x="108.05" y="61.16" width="2" height="0.75" transform="translate(41.65 167.06) rotate(-86.87)" style="fill:#f5f5f5"></rect><path d="M91.85,376.4l-.75,0,.22-4,.75.05Zm.45-8-.75,0,.22-4,.75,0Zm.45-8.05-.75,0,.22-4,.75,0Zm.44-8-.74,0,.22-4,.75,0Zm.45-8.05-.75,0,.23-4,.75.05Zm.45-8-.75,0,.23-4,.75,0Zm.45-8.05-.75,0,.23-4,.75,0Zm.45-8-.75,0,.23-4,.75,0Zm.45-8.05-.75,0,.23-4,.75,0Zm.45-8-.75,0,.23-4,.75,0Zm.45-8.05-.75,0,.23-4,.75,0Zm.45-8-.75,0,.23-4,.74,0Zm.45-8.05-.75,0,.22-4,.75,0Zm.45-8.05-.75,0,.22-4,.75,0Zm.45-8-.75-.05.22-4,.75,0Zm.45-8.05-.75,0,.22-4,.75,0Zm.45-8.05-.75,0,.22-4,.75,0Zm.45-8-.75,0,.22-4,.75,0Zm.45-8-.75,0,.22-4,.75,0Zm.44-8.05-.74,0,.22-4,.75,0Zm.45-8.05-.74,0,.22-4,.75,0Zm.45-8-.75,0,.23-4,.75,0Zm.45-8-.75,0,.23-4,.75,0Zm.45-8.05-.75,0,.23-4,.75,0Zm.45-8.05-.75,0,.23-4,.75,0Zm.45-8-.75,0,.23-4,.75,0Zm.45-8-.75,0,.23-4,.75,0Zm.45-8-.75,0,.23-4,.74,0Zm.45-8.05-.75,0,.23-4,.74,0Zm.45-8-.75-.05.22-4,.75,0Zm.45-8.05-.75,0,.22-4,.75.05Zm.45-8-.75,0,.22-4,.75,0Zm.45-8.05-.75,0,.22-4,.75,0Zm.45-8-.75,0,.22-4,.75,0Zm.45-8-.75,0,.22-4,.75,0Zm.45-8.05-.75,0,.22-4,.75,0Zm.44-8-.74,0,.22-4,.75,0Zm.45-8-.75,0,.23-4,.75,0Zm.45-8.05-.75,0,.23-4,.75,0Z" style="fill:#f5f5f5"></path><polygon points="91.51 382.42 90.76 382.38 90.87 380.38 91.62 380.42 91.51 382.42" style="fill:#f5f5f5"></polygon><rect x="112.63" y="63.65" width="7" height="0.75" transform="translate(45.84 176.48) rotate(-86.87)" style="fill:#f5f5f5"></rect><path d="M99.86,362l-.75,0,.75-13.38.75,0Zm1.49-26.77-.75,0,.75-13.39.75,0Zm1.5-26.77-.75,0,.75-13.39.75,0Zm1.49-26.77-.75-.05.75-13.38.75,0Zm1.5-26.78-.75,0,.75-13.38.75,0Zm1.49-26.77-.75,0,.75-13.39.75,0Zm1.5-26.77-.75,0,.75-13.39.75,0Zm1.49-26.78-.74,0,.74-13.38.75,0Zm1.5-26.77-.75,0,.75-13.39.75,0Zm1.49-26.77-.74,0,.74-13.39.75,0Zm1.5-26.77-.75,0,.75-13.39.75,0Z" style="fill:#f5f5f5"></path><polygon points="98.72 382.42 97.97 382.38 98.36 375.39 99.11 375.43 98.72 382.42" style="fill:#f5f5f5"></polygon><polygon points="123.63 65.55 122.88 65.51 123.16 60.52 123.91 60.56 123.63 65.55" style="fill:#f5f5f5"></polygon><path d="M106.77,367.37l-.75,0,.56-10.07.75.05Zm1.13-20.12-.75-.05.56-10.06.75,0ZM109,327.12l-.75,0,.56-10.06.75,0ZM110.14,307l-.75,0L110,296.9l.74,0Zm1.13-20.12-.75,0,.56-10.06.75,0Zm1.12-20.12-.75,0,.56-10.06.75,0Zm1.12-20.12-.74,0,.56-10.06.75,0Zm1.13-20.12-.75,0,.56-10.06.75,0Zm1.12-20.12-.75,0,.56-10.07.75.05Zm1.12-20.12-.74-.05.56-10.06.75,0ZM118,166.15l-.75,0,.56-10.06.75,0ZM119.13,146l-.75,0,.56-10.06.75,0Zm1.13-20.12-.75,0,.56-10.06.75,0Zm1.12-20.12-.75,0,.56-10.06.75,0Zm1.12-20.12-.75,0,.57-10.06.74,0Z" style="fill:#f5f5f5"></path><polygon points="105.93 382.42 105.18 382.38 105.46 377.39 106.21 377.43 105.93 382.42" style="fill:#f5f5f5"></polygon><rect x="126.78" y="63.9" width="7.5" height="0.75" transform="translate(59.21 191.1) rotate(-86.87)" style="fill:#f5f5f5"></rect><path d="M114.38,360.32l-.75,0,.81-14.62.75,0ZM116,331.09l-.75,0,.82-14.62.74.05Zm1.63-29.23-.75,0,.82-14.61.75,0Zm1.63-29.23-.75,0,.82-14.61.75,0Zm1.63-29.22-.74,0,.81-14.62.75,0Zm1.64-29.23-.75,0,.81-14.61.75,0ZM124.17,185l-.75,0,.82-14.61.74,0Zm1.63-29.22-.75,0,.82-14.61.75,0Zm1.63-29.23-.75,0,.82-14.62.75,0Zm1.64-29.23-.75,0,.81-14.61.75,0Z" style="fill:#f5f5f5"></path><rect x="109.23" y="378.28" width="7.5" height="0.75" transform="translate(-271.29 470.77) rotate(-86.87)" style="fill:#f5f5f5"></rect><polygon points="138.13 64.05 137.38 64.01 137.58 60.52 138.33 60.56 138.13 64.05" style="fill:#f5f5f5"></polygon><path d="M120.94,371.93l-.75,0,.39-7,.75,0Zm.78-14-.75,0,.39-7,.75,0Zm.78-14-.75,0,.39-7,.75,0Zm.78-14-.75,0,.39-7,.75,0Zm.78-14-.75,0,.4-7,.74,0Zm.79-14-.75,0,.39-7,.75,0Zm.78-14-.75,0,.39-7,.75,0Zm.78-14-.75,0,.39-7,.75,0Zm.78-14-.75,0,.39-7,.75,0Zm.78-14-.75,0,.39-7,.75,0Zm.78-14-.75,0,.39-7,.75,0Zm.78-14-.74,0,.39-7,.75,0Zm.79-14-.75-.05.39-7,.75,0Zm.78-14-.75,0,.39-7,.75,0Zm.78-14-.75,0,.39-7,.75,0Zm.78-14-.75,0,.39-7,.75,0Zm.78-14-.75,0,.39-7,.75,0Zm.78-14-.75,0,.4-7,.74,0Zm.79-14-.75,0,.39-7,.75,0Zm.78-14-.75,0,.39-7,.75,0Zm.78-14-.75,0,.39-7,.75,0Zm.78-14-.75,0,.39-7,.75,0Z" style="fill:#f5f5f5"></path><polygon points="120.35 382.42 119.6 382.38 119.8 378.88 120.55 378.93 120.35 382.42" style="fill:#f5f5f5"></polygon><rect x="142" y="63.16" width="6" height="0.75" transform="translate(73.63 204.84) rotate(-86.87)" style="fill:#f5f5f5"></rect><path d="M128.59,364l-.75,0,.69-12.39.75,0ZM130,339.24l-.75,0,.7-12.39.75,0Zm1.39-24.79-.75,0L131.3,302l.75,0Zm1.38-24.79-.75,0,.7-12.4.74,0Zm1.39-24.79-.75,0,.69-12.4.75,0Zm1.38-24.79-.75,0,.69-12.4.75,0Zm1.39-24.79-.75,0,.69-12.4.75,0Zm1.38-24.79-.75,0,.69-12.4.75,0Zm1.38-24.79-.74,0,.69-12.4.75,0Zm1.39-24.79-.75,0,.69-12.4.75,0Zm1.38-24.79-.75,0,.7-12.4.75,0Zm1.39-24.79-.75,0,.69-12.4.75,0Z" style="fill:#f5f5f5"></path><polygon points="127.56 382.42 126.81 382.38 127.15 376.39 127.9 376.43 127.56 382.42" style="fill:#f5f5f5"></polygon><polygon points="152.47 65.55 151.72 65.51 152 60.52 152.75 60.56 152.47 65.55" style="fill:#f5f5f5"></polygon><path d="M135.61,367.37l-.74,0,.56-10.07.75.05Zm1.13-20.12-.75-.05.56-10.06.75,0Zm1.12-20.13-.75,0,.56-10.06.75,0ZM139,307l-.75,0,.56-10.06.75,0Zm1.12-20.12-.75,0,.56-10.06.75,0Zm1.12-20.12-.75,0,.57-10.06.74,0Zm1.13-20.12-.75,0,.56-10.06.75,0Zm1.12-20.12-.75,0,.56-10.06.75,0Zm1.12-20.12-.75,0,.57-10.07.74.05Zm1.13-20.12-.75-.05.56-10.06.75,0Zm1.12-20.13-.75,0,.56-10.06.75,0ZM148,146l-.75,0,.57-10.06.75,0Zm1.13-20.12-.75,0,.56-10.06.75,0Zm1.12-20.12-.75,0L150,95.69l.75,0Zm1.12-20.12-.74,0,.56-10.06.75,0Z" style="fill:#f5f5f5"></path><rect x="132.04" y="379.53" width="5" height="0.75" transform="translate(-252.15 493.47) rotate(-86.87)" style="fill:#f5f5f5"></rect><rect x="155.62" y="63.9" width="7.5" height="0.75" transform="translate(86.48 219.9) rotate(-86.87)" style="fill:#f5f5f5"></rect><path d="M143.22,360.32l-.75,0,.82-14.62.74,0Zm1.63-29.23-.75,0,.82-14.62.75.05Zm1.63-29.23-.75,0,.82-14.61.75,0Zm1.63-29.23-.74,0,.81-14.61.75,0Zm1.64-29.22-.75,0,.81-14.62.75,0Zm1.63-29.23-.75,0,.82-14.61.74,0ZM153,185l-.75,0,.82-14.61.75,0Zm1.63-29.22-.75,0,.82-14.61.75,0Zm1.64-29.23-.75,0,.81-14.62.75,0Zm1.63-29.23-.75,0L158,82.62l.75,0Z" style="fill:#f5f5f5"></path><rect x="138.07" y="378.28" width="7.5" height="0.75" transform="translate(-244.02 499.56) rotate(-86.87)" style="fill:#f5f5f5"></rect><polygon points="166.83 66.55 166.08 66.5 166.42 60.52 167.17 60.56 166.83 66.55" style="fill:#f5f5f5"></polygon><path d="M150.22,364l-.75,0,.69-12.39.75,0Zm1.39-24.79-.75,0,.69-12.39.75,0ZM153,314.45l-.75,0,.69-12.39.75,0Zm1.38-24.79-.74,0,.69-12.4.75,0Zm1.39-24.79-.75,0,.69-12.4.75,0Zm1.38-24.79-.75,0,.7-12.4.75,0Zm1.39-24.79-.75,0,.69-12.4.75,0Zm1.38-24.79-.75,0,.69-12.4.75,0Zm1.39-24.79-.75,0,.69-12.4.75,0Zm1.38-24.79-.75,0,.69-12.4.75,0Zm1.38-24.79-.74,0,.69-12.4.75,0Zm1.39-24.79-.75,0,.69-12.4.75,0Z" style="fill:#f5f5f5"></path><polygon points="149.19 382.42 148.44 382.38 148.78 376.39 149.53 376.43 149.19 382.42" style="fill:#f5f5f5"></polygon><rect x="172.16" y="61.91" width="3.5" height="0.75" transform="translate(102.21 232.52) rotate(-86.87)" style="fill:#f5f5f5"></rect><path d="M157,371.93l-.75,0,.39-7,.75,0Zm.78-14-.75,0,.39-7,.75,0Zm.78-14-.75,0,.4-7,.74,0Zm.79-14-.75,0,.39-7,.75,0Zm.78-14-.75,0,.39-7,.75,0Zm.78-14-.75,0,.39-7,.75,0Zm.78-14-.75,0,.39-7,.75,0Zm.78-14-.75,0,.39-7,.75,0Zm.78-14-.75,0,.39-7,.75,0Zm.78-14-.74,0,.39-7,.74,0Zm.79-14-.75,0,.39-7,.75,0Zm.78-14-.75,0,.39-7,.75,0Zm.78-14-.75-.05.39-7,.75,0Zm.78-14-.75,0,.39-7,.75,0Zm.78-14-.75,0,.39-7,.75,0Zm.78-14-.75,0,.39-7,.75,0Zm.78-14-.74,0,.39-7,.75,0Zm.79-14-.75,0,.39-7,.75,0Zm.78-14-.75,0,.39-7,.75,0Zm.78-14-.75,0,.39-7,.75,0Zm.78-14-.75,0,.39-7,.75,0Zm.78-14-.75,0,.39-7,.75,0Z" style="fill:#f5f5f5"></path><polygon points="156.41 382.42 155.66 382.38 155.85 378.88 156.6 378.93 156.41 382.42" style="fill:#f5f5f5"></polygon><rect x="177.26" y="63.9" width="7.5" height="0.75" transform="translate(106.93 241.5) rotate(-86.87)" style="fill:#f5f5f5"></rect><path d="M164.85,360.32l-.75,0,.82-14.62.75,0Zm1.63-29.23-.75,0,.82-14.62.75.05Zm1.63-29.23-.74,0,.81-14.61.75,0Zm1.64-29.23-.75,0,.81-14.61.75,0Zm1.63-29.22-.75,0,.82-14.62.74,0ZM173,214.18l-.75,0,.82-14.61.75,0ZM174.64,185l-.75,0,.82-14.61.75,0Zm1.63-29.22-.74,0,.81-14.61.75,0Zm1.64-29.23-.75,0,.81-14.62.75,0Zm1.63-29.23-.75,0,.82-14.61.74,0Z" style="fill:#f5f5f5"></path><rect x="159.7" y="378.28" width="7.5" height="0.75" transform="translate(-223.57 521.17) rotate(-86.87)" style="fill:#f5f5f5"></rect><rect x="185.26" y="63.16" width="6" height="0.75" transform="translate(114.53 248.03) rotate(-86.87)" style="fill:#f5f5f5"></rect><path d="M171.85,364l-.75,0,.7-12.39.74,0Zm1.39-24.79-.75,0,.69-12.39.75,0Zm1.38-24.79-.75,0,.69-12.39.75,0ZM176,289.66l-.75,0,.69-12.4.75,0Zm1.38-24.79-.75,0,.69-12.4.75,0Zm1.38-24.79-.74,0,.69-12.4.75,0Zm1.39-24.79-.75,0,.69-12.4.75,0Zm1.38-24.79-.75,0,.7-12.4.75,0Zm1.39-24.79-.75,0,.69-12.4.75,0Zm1.38-24.79-.75,0,.7-12.4.74,0Zm1.39-24.79-.75,0,.69-12.4.75,0Zm1.38-24.79-.75,0L187,78.9l.75,0Z" style="fill:#f5f5f5"></path><polygon points="170.83 382.42 170.08 382.38 170.41 376.39 171.16 376.43 170.83 382.42" style="fill:#f5f5f5"></polygon><rect x="193" y="62.66" width="5" height="0.75" transform="translate(121.85 254.78) rotate(-86.86)" style="fill:#f5f5f5"></rect><path d="M178.88,367.37l-.75,0,.56-10.07.75.05ZM180,347.25l-.75-.05.56-10.06.75,0Zm1.12-20.13-.74,0,.56-10.06.75,0ZM182.25,307l-.75,0,.56-10.06.75,0Zm1.12-20.12-.75,0,.56-10.06.75,0Zm1.13-20.12-.75,0,.56-10.06.75,0Zm1.12-20.12-.75,0,.56-10.06.75,0Zm1.12-20.12-.75,0,.57-10.06.74,0Zm1.13-20.12-.75,0,.56-10.07.75.05ZM189,186.28l-.75-.05.56-10.06.75,0Zm1.12-20.13-.75,0,.57-10.06.74,0ZM191.24,146l-.75,0,.56-10.06.75,0Zm1.12-20.12-.75,0,.56-10.06.75,0Zm1.12-20.12-.75,0,.57-10.06.75,0Zm1.13-20.12-.75,0,.56-10.06.75,0Z" style="fill:#f5f5f5"></path><rect x="175.3" y="379.53" width="5" height="0.75" transform="translate(-211.25 536.68) rotate(-86.87)" style="fill:#f5f5f5"></rect><rect x="198.89" y="63.9" width="7.5" height="0.75" transform="translate(127.38 263.1) rotate(-86.87)" style="fill:#f5f5f5"></rect><path d="M186.48,360.32l-.75,0,.82-14.62.75,0Zm1.63-29.23-.75,0,.82-14.62.75.05Zm1.64-29.23-.75,0,.81-14.61.75,0Zm1.63-29.23-.75,0,.81-14.61.75,0ZM193,243.41l-.75,0,.82-14.62.75,0Zm1.63-29.23-.75,0,.82-14.61.75,0ZM196.27,185l-.75,0,.82-14.61.75,0Zm1.64-29.22-.75,0,.81-14.61.75,0Zm1.63-29.23-.75,0,.82-14.62.74,0Zm1.63-29.23-.75,0,.82-14.61.75,0Z" style="fill:#f5f5f5"></path><polygon points="185.25 382.42 184.5 382.38 184.92 374.89 185.66 374.93 185.25 382.42" style="fill:#f5f5f5"></polygon><polygon points="210.24 64.05 209.49 64.01 209.68 60.52 210.43 60.56 210.24 64.05" style="fill:#f5f5f5"></polygon><path d="M193,371.93l-.75,0,.39-7,.75,0Zm.79-14-.75,0,.39-7,.75,0Zm.78-14-.75,0,.39-7,.75,0Zm.78-14-.75,0,.39-7,.75,0Zm.78-14-.75,0,.39-7,.75,0Zm.78-14-.75,0,.39-7,.75,0Zm.78-14-.75,0,.39-7,.75,0Zm.78-14-.75,0,.4-7,.74,0Zm.79-14-.75,0,.39-7,.75,0Zm.78-14-.75,0,.39-7,.75,0Zm.78-14-.75,0,.39-7,.75,0Zm.78-14-.75,0,.39-7,.75,0Zm.78-14-.75-.05.39-7,.75,0Zm.78-14-.75,0,.39-7,.75,0Zm.78-14-.74,0,.39-7,.74,0Zm.79-14-.75,0,.39-7,.75,0Zm.78-14-.75,0,.39-7,.75,0Zm.78-14-.75,0,.39-7,.75,0Zm.78-14-.75,0,.39-7,.75,0Zm.78-14-.75,0,.39-7,.75,0Zm.78-14-.75,0,.39-7,.75,0Zm.78-14-.74,0,.39-7,.75,0Z" style="fill:#f5f5f5"></path><polygon points="192.46 382.42 191.71 382.38 191.9 378.88 192.65 378.93 192.46 382.42" style="fill:#f5f5f5"></polygon><polygon points="217.5 63.05 216.75 63.01 216.89 60.52 217.64 60.56 217.5 63.05" style="fill:#f5f5f5"></polygon><path d="M200.09,374.89l-.75,0,.28-5,.75,0Zm.56-10.06-.75,0,.28-5,.75,0Zm.56-10.06-.75,0,.28-5,.75,0Zm.56-10.06-.75,0,.29-5,.74,0Zm.56-10-.74-.05.28-5,.75.05Zm.57-10.06-.75-.05.28-5,.75,0Zm.56-10.06-.75,0,.28-5,.75,0Zm.56-10.06-.75,0,.28-5,.75,0Zm.56-10.06-.75,0,.28-5,.75,0Zm.56-10.06-.75,0,.29-5,.74,0Zm.57-10.06-.75,0,.28-5,.75,0Zm.56-10.06-.75,0,.28-5,.75,0Zm.56-10.06-.75,0,.28-5,.75,0Zm.56-10.06-.75,0,.28-5,.75,0Zm.56-10.06-.75,0,.28-5,.75,0Zm.56-10.06-.74,0,.28-5,.74,0Zm.57-10.06-.75,0,.28-5,.75,0Zm.56-10.06-.75,0,.28-5,.75,0Zm.56-10.06-.75,0,.28-5,.75,0Zm.56-10.06-.75,0,.28-5,.75,0Zm.56-10-.75-.05.28-5,.75,0Zm.56-10.06-.74-.05.28-5,.75.05Zm.57-10.06-.75-.05.28-5,.75,0Zm.56-10.06-.75,0,.28-5,.75,0Zm.56-10.06-.75,0,.28-5,.75,0Zm.56-10.06-.75,0,.28-5,.75,0Zm.56-10.06-.75,0,.28-5,.75,0Zm.56-10.06-.74,0,.28-5,.75,0Zm.57-10.06-.75,0,.28-5,.75,0Zm.56-10.06-.75,0,.28-5,.75,0Zm.56-10.06-.75,0,.28-5,.75,0Z" style="fill:#f5f5f5"></path><polygon points="199.67 382.42 198.92 382.38 199.06 379.88 199.81 379.92 199.67 382.42" style="fill:#f5f5f5"></polygon><rect x="221.31" y="63.16" width="6" height="0.75" transform="translate(148.61 284.03) rotate(-86.87)" style="fill:#f5f5f5"></rect><path d="M207.91,364l-.75,0,.69-12.39.75,0Zm1.38-24.79-.75,0,.69-12.39.75,0Zm1.38-24.79-.75,0,.7-12.39.75,0Zm1.39-24.79-.75,0,.69-12.4.75,0Zm1.38-24.79-.75,0,.7-12.4.74,0Zm1.39-24.79-.75,0,.69-12.4.75,0Zm1.38-24.79-.75,0,.69-12.4.75,0Zm1.39-24.79-.75,0,.69-12.4.75,0ZM219,165.71l-.75,0,.69-12.4.75,0Zm1.38-24.79-.74,0,.69-12.4.75,0Zm1.39-24.79-.75,0,.69-12.4.75,0Zm1.38-24.79-.75,0,.7-12.4.75,0Z" style="fill:#f5f5f5"></path><polygon points="206.88 382.42 206.13 382.38 206.46 376.39 207.21 376.43 206.88 382.42" style="fill:#f5f5f5"></polygon><rect x="227.73" y="63.9" width="7.5" height="0.75" transform="translate(154.65 291.9) rotate(-86.87)" style="fill:#f5f5f5"></rect><path d="M215.32,360.32l-.75,0,.82-14.62.75,0ZM217,331.09l-.74,0,.81-14.62.75.05Zm1.64-29.23-.75,0,.81-14.61.75,0Zm1.63-29.23-.75,0,.82-14.61.75,0Zm1.63-29.22-.75,0,.82-14.62.75,0Zm1.63-29.23-.75,0,.82-14.61.75,0ZM225.12,185l-.75,0,.81-14.61.75,0Zm1.63-29.22-.75,0,.82-14.61.74,0Zm1.63-29.23-.75,0,.82-14.62.75,0ZM230,97.27l-.75,0,.82-14.61.75,0Z" style="fill:#f5f5f5"></path><polygon points="214.09 382.42 213.34 382.38 213.76 374.89 214.51 374.93 214.09 382.42" style="fill:#f5f5f5"></polygon><rect x="237.05" y="61.91" width="3.5" height="0.75" transform="translate(163.56 297.32) rotate(-86.87)" style="fill:#f5f5f5"></rect><path d="M221.89,371.93l-.75,0,.39-7,.75,0Zm.78-14-.75,0,.39-7,.75,0Zm.78-14-.75,0,.39-7,.75,0Zm.78-14-.75,0,.39-7,.75,0Zm.78-14-.75,0,.39-7,.75,0Zm.78-14-.75,0,.39-7,.75,0Zm.78-14-.74,0,.39-7,.74,0Zm.79-14-.75,0,.39-7,.75,0Zm.78-14-.75,0,.39-7,.75,0Zm.78-14-.75,0,.39-7,.75,0Zm.78-14-.75,0,.39-7,.75,0Zm.78-14-.75,0,.39-7,.75,0Zm.78-14-.75-.05.39-7,.75,0Zm.78-14-.74,0,.39-7,.74,0Zm.79-14-.75,0,.39-7,.75,0Zm.78-14-.75,0,.39-7,.75,0Zm.78-14-.75,0,.39-7,.75,0Zm.78-14-.75,0,.39-7,.75,0Zm.78-14-.75,0,.39-7,.75,0Zm.78-14-.75,0,.39-7,.75,0Zm.78-14-.74,0,.39-7,.75,0Zm.79-14-.75,0,.39-7,.75,0Z" style="fill:#f5f5f5"></path><polygon points="221.3 382.42 220.55 382.38 220.75 378.88 221.5 378.93 221.3 382.42" style="fill:#f5f5f5"></polygon><polygon points="246.09 67.55 245.34 67.5 245.74 60.52 246.48 60.56 246.09 67.55" style="fill:#f5f5f5"></polygon><path d="M229.65,362l-.75,0,.75-13.38.74,0Zm1.49-26.77-.75,0,.75-13.39.75,0Zm1.5-26.77-.75,0,.75-13.39.75,0Zm1.49-26.77-.75-.05.75-13.38.75,0Zm1.5-26.78-.75,0,.75-13.38.75,0Zm1.49-26.77-.75,0,.75-13.39.75,0Zm1.5-26.77-.75,0,.75-13.39.75,0Zm1.49-26.78-.75,0,.75-13.38.75,0Zm1.5-26.77-.75,0,.75-13.39.75,0Zm1.49-26.77-.75,0,.75-13.39.75,0Zm1.5-26.77-.75,0,.75-13.39.75,0Z" style="fill:#f5f5f5"></path><polygon points="228.51 382.42 227.76 382.38 228.15 375.39 228.9 375.43 228.51 382.42" style="fill:#f5f5f5"></polygon><polygon points="253.58 62.55 252.83 62.51 252.94 60.52 253.69 60.56 253.58 62.55" style="fill:#f5f5f5"></polygon><path d="M236.06,376.4l-.75,0,.22-4,.75,0Zm.45-8-.75,0,.22-4,.75,0Zm.44-8.05-.74,0,.22-4,.75,0Zm.45-8-.74-.05.22-4,.75,0Zm.45-8.05-.75,0,.23-4,.75.05Zm.45-8-.75,0,.23-4,.75,0Zm.45-8.05-.75,0,.23-4,.75,0Zm.45-8-.75,0,.23-4,.75,0Zm.45-8.05-.75,0,.23-4,.75,0Zm.45-8-.75,0,.23-4,.75,0Zm.45-8.05-.75,0,.23-4,.74,0Zm.45-8-.75,0,.22-4,.75,0Zm.45-8.05-.75,0,.22-4,.75,0Zm.45-8.05-.75,0,.22-4,.75,0Zm.45-8-.75-.05.22-4,.75,0Zm.45-8.05-.75,0,.22-4,.75,0Zm.45-8.05-.75,0,.22-4,.75,0Zm.45-8-.75,0,.22-4,.75,0Zm.45-8-.75-.05.22-4,.75,0Zm.44-8.05-.74,0,.22-4,.75,0Zm.45-8.05-.75,0,.23-4,.75,0Zm.45-8-.75,0,.23-4,.75,0Zm.45-8-.75,0,.23-4,.75,0Zm.45-8.05-.75,0,.23-4,.75,0Zm.45-8.05-.75,0,.23-4,.75,0Zm.45-8-.75,0,.23-4,.75,0Zm.45-8-.75,0,.23-4,.75,0Zm.45-8-.75,0,.23-4,.74,0Zm.45-8.05-.75,0,.22-4,.75,0Zm.45-8-.75-.05.22-4,.75,0Zm.45-8.05-.75,0,.22-4,.75.05Zm.45-8-.75,0,.22-4,.75,0Zm.45-8.05-.75,0,.22-4,.75,0Zm.45-8-.75,0,.22-4,.75,0Zm.45-8-.75,0,.22-4,.75,0Zm.45-8.05-.75,0,.22-4,.75,0Zm.44-8-.74,0,.22-4,.75,0Zm.45-8-.75,0,.23-4,.75,0Zm.45-8.05-.75,0,.23-4,.75,0Z" style="fill:#f5f5f5"></path><rect x="234.4" y="381.02" width="2" height="0.75" transform="translate(-158.29 595.61) rotate(-86.87)" style="fill:#f5f5f5"></rect><polygon points="260.57 66.55 259.82 66.5 260.16 60.52 260.9 60.56 260.57 66.55" style="fill:#f5f5f5"></polygon><path d="M244,364l-.75,0,.69-12.39.75,0Zm1.38-24.79-.75,0,.7-12.39.74,0Zm1.39-24.79-.75,0,.69-12.39.75,0Zm1.38-24.79-.75,0,.69-12.4.75,0Zm1.39-24.79-.75,0,.69-12.4.75,0Zm1.38-24.79-.75,0,.69-12.4.75,0Zm1.38-24.79-.75,0,.7-12.4.75,0Zm1.39-24.79-.75,0,.69-12.4.75,0ZM255,165.71l-.75,0,.7-12.4.74,0Zm1.39-24.79-.75,0,.69-12.4.75,0Zm1.38-24.79-.75,0,.69-12.4.75,0Zm1.39-24.79-.75,0,.69-12.4.75,0Z" style="fill:#f5f5f5"></path><polygon points="242.93 382.42 242.18 382.38 242.52 376.39 243.26 376.43 242.93 382.42" style="fill:#f5f5f5"></polygon><rect x="265.89" y="61.91" width="3.5" height="0.75" transform="translate(190.83 326.12) rotate(-86.87)" style="fill:#f5f5f5"></rect><path d="M250.73,371.93l-.75,0,.39-7,.75,0Zm.78-14-.75,0,.39-7,.75,0Zm.78-14-.75,0,.39-7,.75,0Zm.78-14-.75,0,.39-7,.75,0Zm.78-14-.75,0,.39-7,.75,0Zm.78-14-.74,0,.39-7,.75,0Zm.79-14-.75,0,.39-7,.75,0Zm.78-14-.75,0,.39-7,.75,0Zm.78-14-.75,0,.39-7,.75,0Zm.78-14-.75,0,.39-7,.75,0Zm.78-14-.75,0,.39-7,.75,0Zm.78-14-.75,0,.4-7,.74,0Zm.78-14-.74-.05.39-7,.75,0Zm.79-14-.75,0,.39-7,.75,0Zm.78-14-.75,0,.39-7,.75,0Zm.78-14-.75,0,.39-7,.75,0Zm.78-14-.75,0,.39-7,.75,0Zm.78-14-.75,0,.39-7,.75,0Zm.78-14-.75,0,.4-7,.74,0Zm.79-14-.75,0,.39-7,.75,0Zm.78-14-.75,0,.39-7,.75,0Zm.78-14-.75,0,.39-7,.75,0Z" style="fill:#f5f5f5"></path><polygon points="250.14 382.42 249.39 382.38 249.59 378.88 250.34 378.93 250.14 382.42" style="fill:#f5f5f5"></polygon><rect x="273.9" y="61.16" width="2" height="0.75" transform="translate(198.43 332.65) rotate(-86.87)" style="fill:#f5f5f5"></rect><path d="M257.69,376.4l-.75,0,.22-4,.75,0Zm.45-8-.75,0,.22-4,.75,0Zm.45-8.05-.75,0,.22-4,.75,0Zm.45-8-.75-.05.22-4,.75,0Zm.45-8.05-.75,0,.22-4,.75.05Zm.44-8-.74,0,.22-4,.75,0Zm.45-8.05-.74,0,.22-4,.75,0Zm.45-8-.75,0,.23-4,.75,0Zm.45-8.05-.75,0,.23-4,.75,0Zm.45-8-.75,0,.23-4,.75,0Zm.45-8.05-.75,0,.23-4,.75,0Zm.45-8-.75,0,.23-4,.75,0Zm.45-8.05-.75,0,.23-4,.75,0Zm.45-8.05-.75,0,.23-4,.74,0Zm.45-8-.75-.05.22-4,.75,0Zm.45-8.05-.75,0,.22-4,.75,0Zm.45-8.05-.75,0,.22-4,.75,0Zm.45-8-.75,0,.22-4,.75,0Zm.45-8-.75-.05.22-4,.75,0Zm.45-8.05-.75,0,.22-4,.75,0Zm.45-8.05-.75,0,.22-4,.75,0Zm.45-8-.75,0,.22-4,.75,0Zm.44-8-.74,0,.22-4,.75,0Zm.45-8.05-.75,0,.23-4,.75,0Zm.45-8.05-.75,0,.23-4,.75,0Zm.45-8-.75,0,.23-4,.75,0Zm.45-8-.75,0,.23-4,.75,0Zm.45-8-.75,0,.23-4,.75,0Zm.45-8.05-.75,0,.23-4,.75,0Zm.45-8L270,143l.23-4,.75,0Zm.45-8.05-.75,0,.23-4,.74.05Zm.45-8-.75,0,.22-4,.75,0Zm.45-8.05-.75,0,.22-4,.75,0Zm.45-8-.75,0,.22-4,.75,0Zm.45-8-.75,0,.22-4,.75,0Zm.45-8.05-.75,0,.22-4,.75,0Zm.45-8-.75,0,.22-4,.75,0Zm.45-8-.75,0,.22-4,.75,0Zm.45-8.05-.75,0,.22-4,.75,0Z" style="fill:#f5f5f5"></path><rect x="256.03" y="381.02" width="2" height="0.75" transform="translate(-137.85 617.2) rotate(-86.87)" style="fill:#f5f5f5"></rect><rect x="279.52" y="62.66" width="5" height="0.75" transform="translate(203.64 341.18) rotate(-86.86)" style="fill:#f5f5f5"></rect><path d="M265.4,367.37l-.75,0,.57-10.07.74.05Zm1.13-20.12-.75-.05.56-10.06.75,0Zm1.12-20.13-.75,0,.56-10.06.75,0ZM268.77,307l-.75,0,.57-10.06.75,0Zm1.13-20.12-.75,0,.56-10.06.75,0ZM271,266.76l-.75,0,.56-10.06.75,0Zm1.12-20.12-.74,0,.56-10.06.75,0Zm1.13-20.12-.75,0,.56-10.06.75,0Zm1.12-20.12-.75,0,.56-10.07.75.05Zm1.13-20.12-.75-.05.56-10.06.75,0Zm1.12-20.13-.75,0,.56-10.06.75,0ZM277.76,146l-.75,0,.57-10.06.74,0Zm1.13-20.12-.75,0,.56-10.06.75,0ZM280,105.79l-.75,0,.56-10.06.75,0Zm1.12-20.12-.75,0L281,75.57l.75,0Z" style="fill:#f5f5f5"></path><polygon points="264.56 382.42 263.81 382.38 264.09 377.39 264.84 377.43 264.56 382.42" style="fill:#f5f5f5"></polygon><rect x="286.2" y="63.16" width="6" height="0.75" transform="translate(209.96 348.83) rotate(-86.87)" style="fill:#f5f5f5"></rect><path d="M272.8,364l-.75,0,.69-12.39.75,0Zm1.38-24.79-.75,0,.7-12.39.75,0Zm1.39-24.79-.75,0,.69-12.39.75,0ZM277,289.66l-.75,0,.7-12.4.74,0Zm1.39-24.79-.75,0,.69-12.4.75,0Zm1.38-24.79-.75,0,.69-12.4.75,0Zm1.39-24.79-.75,0,.69-12.4.75,0Zm1.38-24.79-.75,0,.69-12.4.75,0Zm1.38-24.79-.74,0,.69-12.4.75,0Zm1.39-24.79-.75,0,.69-12.4.75,0Zm1.38-24.79-.75,0,.7-12.4.75,0ZM288,91.34l-.75,0L288,78.9l.75,0Z" style="fill:#f5f5f5"></path><rect x="268.57" y="379.03" width="6" height="0.75" transform="translate(-122.11 629.83) rotate(-86.87)" style="fill:#f5f5f5"></rect><polygon points="296.76 64.05 296.01 64.01 296.21 60.52 296.96 60.56 296.76 64.05" style="fill:#f5f5f5"></polygon><path d="M279.57,371.93l-.75,0,.39-7,.75,0Zm.78-14-.75,0,.39-7,.75,0Zm.78-14-.75,0,.39-7,.75,0Zm.78-14-.75,0,.4-7,.74,0Zm.78-14-.74,0,.39-7,.75,0Zm.79-14-.75,0,.39-7,.75,0Zm.78-14-.75,0,.39-7,.75,0Zm.78-14-.75,0,.39-7,.75,0Zm.78-14-.75,0,.39-7,.75,0Zm.78-14-.75,0,.39-7,.75,0Zm.78-14-.74,0,.39-7,.74,0Zm.79-14-.75,0,.39-7,.75,0Zm.78-14-.75-.05.39-7,.75,0Zm.78-14-.75,0,.39-7,.75,0Zm.78-14-.75,0,.39-7,.75,0Zm.78-14-.75,0,.39-7,.75,0Zm.78-14-.75,0,.39-7,.75,0Zm.78-14-.74,0,.39-7,.75,0Zm.79-14-.75,0,.39-7,.75,0Zm.78-14-.75,0,.39-7,.75,0Zm.78-14-.75,0,.39-7,.75,0ZM296,78l-.75,0,.39-7,.75,0Z" style="fill:#f5f5f5"></path><polygon points="278.98 382.42 278.23 382.38 278.43 378.88 279.18 378.93 278.98 382.42" style="fill:#f5f5f5"></polygon><rect x="300.63" y="63.16" width="6" height="0.75" transform="translate(223.59 363.23) rotate(-86.87)" style="fill:#f5f5f5"></rect><path d="M287.22,364l-.75,0,.69-12.39.75,0Zm1.38-24.79-.74,0,.69-12.39.75,0ZM290,314.45l-.75,0,.69-12.39.75,0Zm1.38-24.79-.75,0,.7-12.4.75,0Zm1.39-24.79-.75,0,.69-12.4.75,0Zm1.38-24.79-.75,0,.7-12.4.74,0Zm1.39-24.79-.75,0,.69-12.4.75,0Zm1.38-24.79-.75,0,.69-12.4.75,0Zm1.39-24.79-.75,0,.69-12.4.75,0Zm1.38-24.79-.75,0,.69-12.4.75,0Zm1.38-24.79-.74,0,.69-12.4.75,0Zm1.39-24.79-.75,0,.69-12.4.75,0Z" style="fill:#f5f5f5"></path><polygon points="286.19 382.42 285.44 382.38 285.78 376.39 286.53 376.43 286.19 382.42" style="fill:#f5f5f5"></polygon><polygon points="311.04 66.55 310.29 66.5 310.63 60.52 311.38 60.56 311.04 66.55" style="fill:#f5f5f5"></polygon><path d="M294.43,364l-.75,0,.69-12.39.75,0Zm1.38-24.79-.74,0,.69-12.39.75,0Zm1.39-24.79-.75,0,.69-12.39.75,0Zm1.38-24.79-.75,0,.7-12.4.75,0ZM300,264.87l-.75,0,.69-12.4.75,0Zm1.38-24.79-.75,0,.7-12.4.74,0Zm1.39-24.79-.75,0,.69-12.4.75,0Zm1.38-24.79-.75,0,.69-12.4.75,0Zm1.39-24.79-.75,0,.69-12.4.75,0Zm1.38-24.79-.75,0,.69-12.4.75,0Zm1.38-24.79-.74,0,.69-12.4.75,0Zm1.39-24.79-.75,0,.69-12.4.75,0Z" style="fill:#f5f5f5"></path><polygon points="293.4 382.42 292.65 382.38 292.99 376.39 293.74 376.43 293.4 382.42" style="fill:#f5f5f5"></polygon><rect x="316.37" y="61.91" width="3.5" height="0.75" transform="translate(238.54 376.52) rotate(-86.87)" style="fill:#f5f5f5"></rect><path d="M301.2,371.93l-.75,0,.39-7,.75,0Zm.78-14-.75,0,.39-7,.75,0Zm.78-14-.75,0,.4-7,.74,0Zm.78-14-.74,0,.39-7,.75,0Zm.79-14-.75,0,.39-7,.75,0Zm.78-14-.75,0,.39-7,.75,0Zm.78-14-.75,0,.39-7,.75,0Zm.78-14-.75,0,.39-7,.75,0Zm.78-14-.75,0,.39-7,.75,0Zm.78-14-.75,0,.4-7,.74,0Zm.79-14-.75,0,.39-7,.75,0Zm.78-14-.75,0,.39-7,.75,0Zm.78-14-.75-.05.39-7,.75,0Zm.78-14-.75,0,.39-7,.75,0Zm.78-14-.75,0,.39-7,.75,0Zm.78-14-.75,0,.39-7,.75,0Zm.78-14-.75,0,.4-7,.75,0Zm.79-14-.75,0,.39-7,.75,0Zm.78-14-.75,0,.39-7,.75,0Zm.78-14-.75,0,.39-7,.75,0Zm.78-14-.75,0,.39-7,.75,0Zm.78-14-.75,0,.39-7,.75,0Z" style="fill:#f5f5f5"></path><polygon points="300.62 382.42 299.87 382.38 300.06 378.88 300.81 378.93 300.62 382.42" style="fill:#f5f5f5"></polygon><polygon points="325.66 63.05 324.91 63.01 325.05 60.52 325.8 60.56 325.66 63.05" style="fill:#f5f5f5"></polygon><path d="M308.25,374.89l-.75,0,.28-5,.75,0Zm.56-10.06-.75,0,.28-5,.75,0Zm.56-10.06-.75,0,.28-5,.75,0Zm.56-10.06-.75,0,.28-5,.75,0Zm.56-10-.75-.05.28-5,.75.05Zm.56-10.06-.74-.05.28-5,.74,0Zm.57-10.06-.75,0,.28-5,.75,0Zm.56-10.06-.75,0,.28-5,.75,0Zm.56-10.06-.75,0,.28-5,.75,0Zm.56-10.06-.75,0,.28-5,.75,0Zm.56-10.06-.75,0,.28-5,.75,0Zm.56-10.06-.74,0,.28-5,.75,0Zm.57-10.06-.75,0,.28-5,.75,0Zm.56-10.06-.75,0,.28-5,.75,0Zm.56-10.06-.75,0,.28-5,.75,0Zm.56-10.06-.75,0,.28-5,.75,0Zm.56-10.06-.75,0,.29-5,.74,0Zm.57-10.06-.75,0,.28-5,.75,0Zm.56-10.06-.75,0,.28-5,.75,0Zm.56-10.06-.75,0,.28-5,.75,0Zm.56-10-.75-.05.28-5,.75,0Zm.56-10.06-.75-.05.28-5,.75.05Zm.56-10.06-.75-.05.29-5,.74,0Zm.57-10.06-.75,0,.28-5,.75,0Zm.56-10.06-.75,0,.28-5,.75,0Zm.56-10.06-.75,0,.28-5,.75,0Zm.56-10.06-.75,0,.28-5,.75,0Zm.56-10.06-.75,0,.28-5,.75,0ZM324,93.23l-.74,0,.28-5,.75,0Zm.57-10.06-.75,0,.28-5,.75,0Zm.56-10.06-.75,0,.28-5,.75,0Z" style="fill:#f5f5f5"></path><rect x="306.27" y="380.78" width="2.5" height="0.75" transform="translate(-89.87 667.38) rotate(-86.87)" style="fill:#f5f5f5"></rect><rect x="330.79" y="61.91" width="3.5" height="0.75" transform="translate(252.17 390.92) rotate(-86.87)" style="fill:#f5f5f5"></rect><path d="M315.62,371.93l-.75,0,.39-7,.75,0Zm.78-14-.75,0,.39-7,.75,0Zm.78-14-.74,0,.39-7,.75,0Zm.79-14-.75,0,.39-7,.75,0Zm.78-14-.75,0,.39-7,.75,0Zm.78-14-.75,0,.39-7,.75,0Zm.78-14-.75,0,.39-7,.75,0Zm.78-14-.75,0,.39-7,.75,0Zm.78-14-.75,0,.4-7,.74,0Zm.79-14-.75,0,.39-7,.75,0Zm.78-14-.75,0,.39-7,.75,0Zm.78-14-.75,0,.39-7,.75,0Zm.78-14-.75-.05.39-7,.75,0Zm.78-14-.75,0,.39-7,.75,0Zm.78-14-.75,0,.39-7,.75,0Zm.78-14-.74,0,.39-7,.74,0Zm.79-14-.75,0,.39-7,.75,0Zm.78-14-.75,0,.39-7,.75,0Zm.78-14-.75,0,.39-7,.75,0Zm.78-14-.75,0,.39-7,.75,0Zm.78-14-.75,0,.39-7,.75,0ZM332,78l-.75,0,.39-7,.75,0Z" style="fill:#f5f5f5"></path><polygon points="315.04 382.42 314.29 382.38 314.48 378.88 315.23 378.93 315.04 382.42" style="fill:#f5f5f5"></polygon><polygon points="339.88 66.55 339.14 66.5 339.47 60.52 340.22 60.56 339.88 66.55" style="fill:#f5f5f5"></polygon><path d="M323.27,364l-.75,0,.7-12.39.74,0Zm1.39-24.79-.75,0,.69-12.39.75,0ZM326,314.45l-.75,0L326,302l.75,0Zm1.39-24.79-.75,0,.69-12.4.75,0Zm1.38-24.79-.75,0,.69-12.4.75,0Zm1.38-24.79-.74,0,.69-12.4.75,0Zm1.39-24.79-.75,0,.69-12.4.75,0ZM333,190.5l-.75,0,.7-12.4.75,0Zm1.39-24.79-.75,0,.69-12.4.75,0Zm1.38-24.79-.75,0,.7-12.4.74,0Zm1.39-24.79-.75,0,.69-12.4.75,0Zm1.38-24.79-.75,0,.69-12.4.75,0Z" style="fill:#f5f5f5"></path><polygon points="322.25 382.42 321.5 382.38 321.83 376.39 322.58 376.43 322.25 382.42" style="fill:#f5f5f5"></polygon><polygon points="347.01 68.04 346.26 68 346.68 60.52 347.43 60.56 347.01 68.04" style="fill:#f5f5f5"></polygon><path d="M330.69,360.32l-.75,0,.82-14.62.75,0Zm1.63-29.23-.75,0,.82-14.62.75.05ZM334,301.86l-.74,0,.81-14.61.75,0Zm1.64-29.23-.75,0,.81-14.61.75,0Zm1.63-29.22-.75,0,.82-14.62.75,0Zm1.63-29.23-.75,0,.82-14.61.75,0ZM340.48,185l-.75,0,.82-14.61.75,0Zm1.64-29.22-.75,0,.81-14.61.75,0Zm1.63-29.23-.75,0,.81-14.62.75,0Zm1.63-29.23-.75,0,.82-14.61.75,0Z" style="fill:#f5f5f5"></path><rect x="325.54" y="378.28" width="7.5" height="0.75" transform="translate(-66.8 686.76) rotate(-86.87)" style="fill:#f5f5f5"></rect><rect x="351.1" y="63.16" width="6" height="0.75" transform="translate(271.31 413.63) rotate(-86.87)" style="fill:#f5f5f5"></rect><path d="M337.69,364l-.75,0,.7-12.39.75,0Zm1.39-24.79-.75,0,.69-12.39.75,0Zm1.38-24.79-.75,0,.7-12.39.74,0Zm1.39-24.79-.75,0,.69-12.4.75,0Zm1.38-24.79-.75,0,.69-12.4.75,0Zm1.39-24.79-.75,0,.69-12.4.75,0ZM346,215.29l-.75,0,.69-12.4.75,0Zm1.38-24.79-.74,0,.69-12.4.75,0Zm1.39-24.79-.75,0,.69-12.4.75,0Zm1.38-24.79-.75,0,.7-12.4.75,0Zm1.39-24.79-.75,0,.69-12.4.75,0Zm1.38-24.79-.75,0,.7-12.4.74,0Z" style="fill:#f5f5f5"></path><polygon points="336.67 382.42 335.92 382.38 336.25 376.39 337 376.43 336.67 382.42" style="fill:#f5f5f5"></polygon><rect x="359.63" y="61.91" width="3.5" height="0.75" transform="translate(279.44 419.72) rotate(-86.87)" style="fill:#f5f5f5"></rect><path d="M344.46,371.93l-.75,0,.39-7,.75,0Zm.79-14-.75,0,.39-7,.75,0Zm.78-14-.75,0,.39-7,.75,0Zm.78-14-.75,0,.39-7,.75,0Zm.78-14-.75,0,.39-7,.75,0Zm.78-14-.75,0,.39-7,.75,0Zm.78-14-.75,0,.39-7,.75,0Zm.78-14-.75,0,.4-7,.74,0Zm.79-14-.75,0,.39-7,.75,0Zm.78-14-.75,0,.39-7,.75,0Zm.78-14-.75,0,.39-7,.75,0Zm.78-14-.75,0,.39-7,.75,0Zm.78-14-.75-.05.39-7,.75,0Zm.78-14-.75,0,.39-7,.75,0Zm.78-14-.74,0,.39-7,.74,0Zm.79-14-.75,0,.39-7,.75,0Zm.78-14-.75,0,.39-7,.75,0Zm.78-14-.75,0,.39-7,.75,0Zm.78-14-.75,0,.39-7,.75,0Zm.78-14-.75,0,.39-7,.75,0Zm.78-14-.75,0,.39-7,.75,0Zm.78-14-.74,0,.39-7,.75,0Z" style="fill:#f5f5f5"></path><polygon points="343.88 382.42 343.13 382.38 343.32 378.88 344.07 378.93 343.88 382.42" style="fill:#f5f5f5"></polygon><rect x="365.52" y="63.16" width="6" height="0.75" transform="translate(284.94 428.03) rotate(-86.87)" style="fill:#f5f5f5"></rect><path d="M352.12,364l-.75,0,.69-12.39.75,0Zm1.38-24.79-.75,0,.69-12.39.75,0Zm1.38-24.79-.75,0,.7-12.39.75,0Zm1.39-24.79-.75,0,.69-12.4.75,0Zm1.38-24.79-.75,0,.7-12.4.74,0ZM359,240.08l-.75,0,.69-12.4.75,0Zm1.38-24.79-.75,0,.69-12.4.75,0Zm1.39-24.79-.75,0,.69-12.4.75,0Zm1.38-24.79-.75,0,.69-12.4.75,0Zm1.38-24.79-.74,0,.69-12.4.75,0ZM366,116.13l-.75,0,.69-12.4.75,0Zm1.38-24.79-.75,0,.7-12.4.75,0Z" style="fill:#f5f5f5"></path><polygon points="351.09 382.42 350.34 382.38 350.67 376.39 351.42 376.43 351.09 382.42" style="fill:#f5f5f5"></polygon><polygon points="375.85 68.04 375.11 68 375.52 60.52 376.27 60.56 375.85 68.04" style="fill:#f5f5f5"></polygon><path d="M359.53,360.32l-.75,0,.82-14.62.75,0Zm1.63-29.23-.74,0,.81-14.62.75.05Zm1.64-29.23-.75,0,.81-14.61.75,0Zm1.63-29.23-.75,0L364.5,258l.75,0Zm1.63-29.22-.75,0,.82-14.62.75,0Zm1.63-29.23-.75,0,.82-14.61.75,0ZM369.33,185l-.75,0,.81-14.61.75,0ZM371,155.73l-.75,0,.81-14.61.75,0Zm1.63-29.23-.75,0,.82-14.62.75,0Zm1.63-29.23-.75,0,.82-14.61.75,0Z" style="fill:#f5f5f5"></path><rect x="354.38" y="378.28" width="7.5" height="0.75" transform="translate(-39.53 715.56) rotate(-86.87)" style="fill:#f5f5f5"></rect><rect x="379.41" y="63.65" width="7" height="0.75" transform="translate(298.05 442.87) rotate(-86.87)" style="fill:#f5f5f5"></rect><path d="M366.65,362l-.75,0,.74-13.38.75,0Zm1.49-26.77-.75,0,.75-13.39.75,0Zm1.5-26.77-.75,0,.75-13.39.74,0Zm1.49-26.77-.75-.05.75-13.38.75,0Zm1.5-26.78-.75,0,.75-13.38.74,0Zm1.49-26.77-.75,0,.75-13.39.75,0Zm1.5-26.77-.75,0,.75-13.39.74,0Zm1.49-26.78-.75,0,.75-13.38.75,0Zm1.5-26.77-.75,0,.75-13.39.74,0Zm1.49-26.77-.75,0,.75-13.39.75,0Zm1.5-26.77-.75,0,.75-13.39.75,0Z" style="fill:#f5f5f5"></path><polygon points="365.51 382.42 364.76 382.38 365.15 375.39 365.9 375.43 365.51 382.42" style="fill:#f5f5f5"></polygon><polygon points="390.5 64.05 389.75 64.01 389.94 60.52 390.69 60.56 390.5 64.05" style="fill:#f5f5f5"></polygon><path d="M373.31,371.93l-.75,0,.39-7,.75,0Zm.78-14-.75,0,.39-7,.75,0Zm.78-14-.75,0,.39-7,.75,0Zm.78-14-.75,0,.39-7,.75,0Zm.78-14-.75,0,.39-7,.75,0Zm.78-14-.75,0,.39-7,.75,0Zm.78-14-.74,0,.39-7,.75,0Zm.79-14-.75,0,.39-7,.75,0Zm.78-14-.75,0,.39-7,.75,0Zm.78-14-.75,0,.39-7,.75,0Zm.78-14-.75,0,.39-7,.75,0Zm.78-14-.75,0,.39-7,.75,0Zm.78-14-.75-.05.4-7,.74,0Zm.78-14-.74,0,.39-7,.75,0Zm.79-14-.75,0,.39-7,.75,0Zm.78-14-.75,0,.39-7,.75,0Zm.78-14-.75,0,.39-7,.75,0Zm.78-14-.75,0,.39-7,.75,0Zm.78-14-.75,0,.39-7,.75,0Zm.78-14-.74,0,.39-7,.74,0Zm.79-14-.75,0,.39-7,.75,0Zm.78-14L389,78l.39-7,.75,0Z" style="fill:#f5f5f5"></path><polygon points="372.72 382.42 371.97 382.38 372.17 378.88 372.91 378.93 372.72 382.42" style="fill:#f5f5f5"></polygon><rect x="394.36" y="63.16" width="6" height="0.75" transform="translate(312.21 456.83) rotate(-86.87)" style="fill:#f5f5f5"></rect><path d="M381,364l-.75,0,.69-12.39.75,0Zm1.38-24.79-.75,0,.69-12.39.75,0Zm1.39-24.79-.75,0,.69-12.39.75,0Zm1.38-24.79-.75,0,.69-12.4.75,0Zm1.38-24.79-.74,0,.69-12.4.75,0Zm1.39-24.79-.75,0,.69-12.4.75,0Zm1.38-24.79-.75,0,.7-12.4.75,0Zm1.39-24.79-.75,0,.69-12.4.75,0ZM392,165.71l-.75,0,.7-12.4.74,0Zm1.39-24.79-.75,0,.69-12.4.75,0Zm1.38-24.79-.75,0,.69-12.4.75,0Zm1.38-24.79-.74,0,.69-12.4.75,0Z" style="fill:#f5f5f5"></path><polygon points="379.93 382.42 379.18 382.38 379.52 376.39 380.26 376.43 379.93 382.42" style="fill:#f5f5f5"></polygon><polygon points="404.83 65.55 404.09 65.51 404.37 60.52 405.12 60.56 404.83 65.55" style="fill:#f5f5f5"></polygon><path d="M388,367.37l-.75,0,.56-10.07.75.05Zm1.12-20.12-.74-.05.56-10.06.75,0Zm1.13-20.13-.75,0L390,317l.75,0ZM391.35,307l-.75,0,.56-10.06.75,0Zm1.13-20.12-.75,0,.56-10.06.75,0Zm1.12-20.12-.75,0,.56-10.06.75,0Zm1.12-20.12-.75,0,.57-10.06.74,0Zm1.13-20.12-.75,0,.56-10.06.75,0ZM397,206.4l-.75,0,.56-10.07.75.05Zm1.12-20.12-.75-.05.57-10.06.75,0Zm1.13-20.13-.75,0,.56-10.06.75,0ZM400.34,146l-.75,0,.56-10.06.75,0Zm1.12-20.12-.74,0,.56-10.06.75,0Zm1.13-20.12-.75,0,.56-10.06.75,0Zm1.12-20.12-.75,0,.56-10.06.75,0Z" style="fill:#f5f5f5"></path><rect x="384.41" y="379.53" width="5" height="0.75" transform="translate(-13.57 745.47) rotate(-86.87)" style="fill:#f5f5f5"></rect><rect x="410.89" y="61.16" width="2" height="0.75" transform="translate(327.94 469.45) rotate(-86.87)" style="fill:#f5f5f5"></rect><path d="M394.69,376.4l-.75,0,.22-4,.75,0Zm.45-8-.75,0,.22-4,.75,0Zm.45-8.05-.75,0,.22-4,.75,0Zm.45-8-.75-.05.22-4,.75,0Zm.44-8.05-.74,0,.22-4,.75.05Zm.45-8-.75,0,.23-4,.75,0Zm.45-8.05-.75,0,.23-4,.75,0Zm.45-8-.75,0,.23-4,.75,0Zm.45-8.05-.75,0,.23-4,.75,0Zm.45-8-.75,0,.23-4,.75,0Zm.45-8.05-.75,0,.23-4,.75,0Zm.45-8-.75,0,.23-4,.74,0Zm.45-8.05-.75,0,.23-4,.74,0Zm.45-8.05-.75,0,.22-4,.75,0Zm.45-8-.75-.05.22-4,.75,0Zm.45-8.05-.75,0,.22-4,.75,0Zm.45-8.05-.75,0,.22-4,.75,0Zm.45-8-.75,0,.22-4,.75,0Zm.45-8-.75-.05.22-4,.75,0Zm.45-8.05-.75,0,.22-4,.75,0Zm.44-8.05-.74,0,.22-4,.75,0Zm.45-8-.74,0,.22-4,.75,0Zm.45-8-.75,0,.23-4,.75,0Zm.45-8.05-.75,0,.23-4,.75,0Zm.45-8.05-.75,0,.23-4,.75,0Zm.45-8-.75,0,.23-4,.75,0Zm.45-8-.75,0,.23-4,.75,0Zm.45-8-.75,0,.23-4,.75,0Zm.45-8.05-.75,0,.23-4,.74,0Zm.45-8L407,143l.23-4,.74,0Zm.45-8.05-.75,0,.22-4,.75.05Zm.45-8-.75,0,.22-4,.75,0Zm.45-8.05-.75,0,.22-4,.75,0Zm.45-8-.75,0,.22-4,.75,0Zm.45-8-.75,0,.22-4,.75,0Zm.45-8.05-.75,0,.22-4,.75,0Zm.45-8-.75,0,.22-4,.75,0Zm.44-8-.74,0,.22-4,.75,0Zm.45-8.05-.74,0,.22-4,.75,0Z" style="fill:#f5f5f5"></path><rect x="393.03" y="381.02" width="2" height="0.75" transform="translate(-8.33 754) rotate(-86.87)" style="fill:#f5f5f5"></rect><polygon points="419.34 64.05 418.59 64.01 418.79 60.52 419.54 60.56 419.34 64.05" style="fill:#f5f5f5"></polygon><path d="M402.15,371.93l-.75,0,.39-7,.75,0Zm.78-14-.75,0,.39-7,.75,0Zm.78-14-.75,0,.39-7,.75,0Zm.78-14-.75,0,.39-7,.75,0Zm.78-14-.75,0,.39-7,.75,0Zm.79-14-.75,0,.39-7,.75,0Zm.78-14-.75,0,.39-7,.75,0Zm.78-14-.75,0,.39-7,.75,0Zm.78-14-.75,0,.39-7,.75,0Zm.78-14-.75,0,.39-7,.75,0Zm.78-14-.75,0,.39-7,.75,0Zm.78-14-.74,0,.39-7,.74,0Zm.79-14-.75-.05.39-7,.75,0Zm.78-14-.75,0,.39-7,.75,0Zm.78-14-.75,0,.39-7,.75,0Zm.78-14-.75,0,.39-7,.75,0Zm.78-14-.75,0,.39-7,.75,0Zm.78-14-.75,0,.39-7,.75,0Zm.78-14-.74,0,.39-7,.74,0Zm.79-14-.75,0,.39-7,.75,0Zm.78-14L417,92l.39-7,.75,0Zm.78-14-.75,0,.39-7,.75,0Z" style="fill:#f5f5f5"></path><polygon points="401.56 382.42 400.81 382.38 401.01 378.88 401.76 378.93 401.56 382.42" style="fill:#f5f5f5"></polygon><rect x="425.05" y="61.41" width="2.5" height="0.75" transform="translate(341.25 484.06) rotate(-86.86)" style="fill:#f5f5f5"></rect><path d="M409.19,374.89l-.75,0,.28-5,.75,0Zm.56-10.06-.75,0,.29-5,.74,0Zm.57-10.06-.75,0,.28-5,.75,0Zm.56-10.06-.75,0,.28-5,.75,0Zm.56-10-.75-.05.28-5,.75.05ZM412,324.6l-.75-.05.28-5,.75,0Zm.56-10.06-.75,0,.28-5,.75,0Zm.56-10.06-.74,0,.28-5,.75,0Zm.57-10.06-.75,0,.28-5,.75,0Zm.56-10.06-.75,0,.28-5,.75,0Zm.56-10.06-.75,0,.28-5,.75,0Zm.56-10.06-.75,0,.28-5,.75,0Zm.56-10.06-.75,0,.29-5,.74,0Zm.57-10.06-.75,0,.28-5,.75,0Zm.56-10.06-.75,0,.28-5,.75,0Zm.56-10.06-.75,0,.28-5,.75,0Zm.56-10.06-.75,0,.28-5,.75,0Zm.56-10.06-.75,0,.28-5,.75,0Zm.56-10.06-.75,0,.29-5,.74,0Zm.57-10.06-.75,0,.28-5,.75,0Zm.56-10-.75-.05.28-5,.75,0Zm.56-10.06-.75-.05.28-5,.75.05Zm.56-10.06-.75-.05.28-5,.75,0Zm.56-10.06-.75,0,.28-5,.75,0Zm.56-10.06-.74,0,.28-5,.74,0Zm.57-10.06-.75,0,.28-5,.75,0Zm.56-10.06-.75,0,.28-5,.75,0Zm.56-10.06-.75,0,.28-5,.75,0Zm.56-10.06-.75,0,.28-5,.75,0Zm.56-10.06-.75,0,.29-5,.74,0ZM426,73.11l-.74,0,.28-5,.75,0Z" style="fill:#f5f5f5"></path><polygon points="408.77 382.42 408.02 382.38 408.16 379.88 408.91 379.92 408.77 382.42" style="fill:#f5f5f5"></polygon><polygon points="433.62 66.55 432.87 66.5 433.21 60.52 433.96 60.56 433.62 66.55" style="fill:#f5f5f5"></polygon><path d="M417,364l-.75,0L417,351.6l.75,0Zm1.38-24.79-.75,0,.7-12.39.75,0Zm1.39-24.79-.75,0,.69-12.39.75,0Zm1.38-24.79-.75,0,.7-12.4.74,0Zm1.39-24.79-.75,0,.69-12.4.75,0Zm1.38-24.79-.75,0,.69-12.4.75,0Zm1.39-24.79-.75,0,.69-12.4.75,0Zm1.38-24.79-.75,0,.69-12.4.75,0Zm1.38-24.79-.74,0,.69-12.4.75,0Zm1.39-24.79-.75,0,.69-12.4.75,0Zm1.38-24.79-.75,0,.7-12.4.75,0Zm1.39-24.79-.75,0,.69-12.4.75,0Z" style="fill:#f5f5f5"></path><polygon points="415.98 382.42 415.23 382.38 415.57 376.39 416.32 376.43 415.98 382.42" style="fill:#f5f5f5"></polygon><rect x="436.83" y="63.9" width="7.5" height="0.75" transform="translate(352.32 500.69) rotate(-86.87)" style="fill:#f5f5f5"></rect><path d="M424.43,360.32l-.75,0,.81-14.62.75,0Zm1.63-29.23-.75,0,.82-14.62.75.05Zm1.63-29.23-.75,0,.82-14.61.75,0Zm1.63-29.23-.75,0,.82-14.61.75,0ZM431,243.41l-.75,0,.81-14.62.75,0Zm1.63-29.23-.75,0,.81-14.61.75,0ZM434.22,185l-.75,0,.82-14.61.75,0Zm1.63-29.22-.75,0,.82-14.61.75,0Zm1.63-29.23-.74,0,.81-14.62.75,0Zm1.64-29.23-.75,0,.81-14.61.75,0Z" style="fill:#f5f5f5"></path><rect x="419.28" y="378.28" width="7.5" height="0.75" transform="translate(21.82 780.35) rotate(-86.87)" style="fill:#f5f5f5"></rect><polygon points="448.18 64.05 447.43 64.01 447.63 60.52 448.38 60.56 448.18 64.05" style="fill:#f5f5f5"></polygon><path d="M431,371.93l-.75,0,.39-7,.75,0Zm.78-14-.75,0,.39-7,.75,0Zm.78-14-.75,0,.39-7,.75,0Zm.78-14-.75,0,.4-7,.74,0Zm.79-14-.75,0,.39-7,.75,0Zm.78-14-.75,0,.39-7,.75,0Zm.78-14-.75,0,.39-7,.75,0Zm.78-14-.75,0,.39-7,.75,0Zm.78-14-.75,0,.39-7,.75,0Zm.78-14-.75,0,.39-7,.75,0Zm.78-14-.74,0,.39-7,.74,0Zm.79-14-.75,0,.39-7,.75,0Zm.78-14-.75-.05.39-7,.75,0Zm.78-14-.75,0,.39-7,.75,0Zm.78-14-.75,0,.39-7,.75,0Zm.78-14-.75,0,.39-7,.75,0Zm.78-14-.75,0,.39-7,.75,0Zm.78-14-.74,0,.39-7,.75,0Zm.79-14-.75,0,.39-7,.75,0Zm.78-14-.75,0,.39-7,.75,0Zm.78-14-.75,0,.39-7,.75,0Zm.78-14-.75,0,.39-7,.75,0Z" style="fill:#f5f5f5"></path><polygon points="430.4 382.42 429.65 382.38 429.85 378.88 430.6 378.93 430.4 382.42" style="fill:#f5f5f5"></polygon><rect x="452.05" y="63.16" width="6" height="0.75" transform="translate(366.74 514.42) rotate(-86.87)" style="fill:#f5f5f5"></rect><path d="M438.64,364l-.75,0,.69-12.39.75,0ZM440,339.24l-.74,0,.69-12.39.75,0Zm1.39-24.79-.75,0,.69-12.39.75,0Zm1.38-24.79-.75,0,.7-12.4.75,0Zm1.39-24.79-.75,0,.69-12.4.75,0Zm1.38-24.79-.75,0,.7-12.4.74,0ZM447,215.29l-.75,0,.69-12.4.75,0Zm1.38-24.79-.75,0,.69-12.4.75,0Zm1.39-24.79-.75,0,.69-12.4.75,0Zm1.38-24.79-.75,0,.69-12.4.75,0Zm1.38-24.79-.74,0,.69-12.4.75,0Zm1.39-24.79-.75,0,.69-12.4.75,0Z" style="fill:#f5f5f5"></path><polygon points="437.61 382.42 436.87 382.38 437.2 376.39 437.95 376.43 437.61 382.42" style="fill:#f5f5f5"></polygon><ellipse cx="404.69" cy="60.47" rx="25.87" ry="21.53" style="fill:#fafafa"></ellipse><ellipse cx="367.59" cy="67.42" rx="24.66" ry="30.26" transform="translate(153.18 373.52) rotate(-65.38)" style="fill:#fafafa"></ellipse><ellipse cx="379.94" cy="40.39" rx="21.02" ry="26.49" transform="translate(119.13 319.61) rotate(-53.02)" style="fill:#fafafa"></ellipse><ellipse cx="353.25" cy="43.81" rx="18.81" ry="15.59" transform="translate(-1.95 66.92) rotate(-10.79)" style="fill:#fafafa"></ellipse><ellipse cx="332.6" cy="56.11" rx="13.59" ry="16.99" transform="translate(102.12 302.39) rotate(-56.47)" style="fill:#fafafa"></ellipse><ellipse cx="430.56" cy="52.26" rx="16.74" ry="13.79" transform="translate(3.44 127.61) rotate(-16.92)" style="fill:#fafafa"></ellipse><ellipse cx="248.63" cy="48.06" rx="20.87" ry="17.37" style="fill:#fafafa"></ellipse><ellipse cx="283.19" cy="53.06" rx="24.22" ry="20.06" transform="translate(-4.9 57.31) rotate(-11.46)" style="fill:#fafafa"></ellipse><ellipse cx="275.72" cy="31.86" rx="16.58" ry="21.87" transform="translate(36.25 172.18) rotate(-36.96)" style="fill:#fafafa"></ellipse><path d="M312.65,33.67c-1,8.61-10.26,14.4-20.6,12.93S274.16,37,275.19,28.35,285.45,14,295.8,15.42,313.68,25.06,312.65,33.67Z" style="fill:#fafafa"></path><ellipse cx="311.59" cy="49.41" rx="17.79" ry="14.24" transform="translate(24.55 180.31) rotate(-33.53)" style="fill:#fafafa"></ellipse><ellipse cx="255.6" cy="35.98" rx="13.17" ry="15.98" transform="translate(146.77 270.04) rotate(-73.08)" style="fill:#fafafa"></ellipse><ellipse cx="204.6" cy="65.13" rx="22.17" ry="18.46" style="fill:#fafafa"></ellipse><ellipse cx="172.8" cy="71.09" rx="21.14" ry="25.94" transform="translate(36.18 198.57) rotate(-65.38)" style="fill:#fafafa"></ellipse><ellipse cx="187.93" cy="47.11" rx="20.99" ry="26.46" transform="translate(37.25 168.9) rotate(-53.02)" style="fill:#fafafa"></ellipse><ellipse cx="160.17" cy="48.06" rx="16.13" ry="13.37" transform="translate(-6.17 30.84) rotate(-10.79)" style="fill:#fafafa"></ellipse><ellipse cx="135.33" cy="56.56" rx="17.39" ry="21.12" transform="translate(40.96 168.84) rotate(-72.63)" style="fill:#fafafa"></ellipse><ellipse cx="226.78" cy="58.09" rx="14.35" ry="11.82" transform="translate(-7.09 68.53) rotate(-16.92)" style="fill:#fafafa"></ellipse><ellipse cx="70.82" cy="54.5" rx="17.89" ry="14.89" style="fill:#fafafa"></ellipse><ellipse cx="100.44" cy="58.78" rx="20.76" ry="17.2" transform="translate(-9.67 21.12) rotate(-11.46)" style="fill:#fafafa"></ellipse><path d="M81.19,27.08c5.27-5.91,15.29-4.64,22.39,2.84s8.58,18.32,3.31,24.22S91.6,58.78,84.51,51.31,75.92,33,81.19,27.08Z" style="fill:#fafafa"></path><ellipse cx="109.64" cy="39.88" rx="13.45" ry="16.22" transform="matrix(0.19, -0.98, 0.98, 0.19, 49.94, 140.12)" style="fill:#fafafa"></ellipse><ellipse cx="76.79" cy="44.14" rx="11.29" ry="13.7" transform="translate(12.21 104.76) rotate(-73.08)" style="fill:#fafafa"></ellipse><ellipse cx="80.19" cy="75.22" rx="28.4" ry="21.75" style="fill:#f0f0f0"></ellipse><ellipse cx="120.92" cy="82.24" rx="32.87" ry="25.17" transform="translate(-19.26 40.58) rotate(-17.67)" style="fill:#f0f0f0"></ellipse><ellipse cx="107.36" cy="54.94" rx="28.4" ry="21.75" transform="translate(-13.22 57) rotate(-28.08)" style="fill:#f0f0f0"></ellipse><ellipse cx="136.66" cy="58.39" rx="15.78" ry="20.61" transform="translate(61.04 186.32) rotate(-82.55)" style="fill:#f0f0f0"></ellipse><ellipse cx="156.77" cy="70.82" rx="27.09" ry="20.74" transform="translate(-15.24 72.95) rotate(-25.02)" style="fill:#f0f0f0"></ellipse><ellipse cx="51.79" cy="66.92" rx="14" ry="18.28" transform="translate(-24.34 103.88) rotate(-78.16)" style="fill:#f0f0f0"></ellipse><ellipse cx="251.5" cy="62.69" rx="22.91" ry="17.55" style="fill:#f0f0f0"></ellipse><ellipse cx="213.57" cy="67.73" rx="20.31" ry="26.52" transform="translate(117.06 269.93) rotate(-82.08)" style="fill:#f0f0f0"></ellipse><ellipse cx="221.76" cy="46.33" rx="22.91" ry="17.55" transform="translate(30.25 167.36) rotate(-44.09)" style="fill:#f0f0f0"></ellipse><ellipse cx="201.79" cy="45.46" rx="20.73" ry="15.88" transform="translate(-4.19 26.54) rotate(-7.45)" style="fill:#f0f0f0"></ellipse><ellipse cx="182.39" cy="64.05" rx="14.66" ry="19.15" transform="translate(47.21 202.24) rotate(-64.98)" style="fill:#f0f0f0"></ellipse><ellipse cx="243.85" cy="50.48" rx="17.45" ry="13.37" transform="translate(-5.17 51.12) rotate(-11.84)" style="fill:#f0f0f0"></ellipse><ellipse cx="299.84" cy="79.93" rx="24.34" ry="18.64" style="fill:#f0f0f0"></ellipse><ellipse cx="334.75" cy="85.95" rx="28.18" ry="21.58" transform="translate(-10.3 105.66) rotate(-17.67)" style="fill:#f0f0f0"></ellipse><ellipse cx="318.14" cy="61.72" rx="28.36" ry="21.72" transform="translate(8.4 157.02) rotate(-28.08)" style="fill:#f0f0f0"></ellipse><ellipse cx="348.61" cy="62.69" rx="13.53" ry="17.67" transform="translate(241.26 400.23) rotate(-82.55)" style="fill:#f0f0f0"></ellipse><ellipse cx="379.56" cy="75.9" rx="29.37" ry="22.49" transform="translate(-7.47 81.71) rotate(-12.17)" style="fill:#f0f0f0"></ellipse><ellipse cx="275.49" cy="72.82" rx="12" ry="15.67" transform="translate(147.69 327.51) rotate(-78.16)" style="fill:#f0f0f0"></ellipse><ellipse cx="446.69" cy="69.19" rx="19.64" ry="15.04" style="fill:#f0f0f0"></ellipse><ellipse cx="414.17" cy="73.51" rx="17.41" ry="22.74" transform="translate(284.31 473.61) rotate(-82.08)" style="fill:#f0f0f0"></ellipse><ellipse cx="418.64" cy="55.16" rx="22.78" ry="17.45" transform="translate(79.57 306.83) rotate(-44.09)" style="fill:#f0f0f0"></ellipse><ellipse cx="404.08" cy="54.42" rx="17.77" ry="13.61" transform="matrix(0.99, -0.13, 0.13, 0.99, -3.65, 52.84)" style="fill:#f0f0f0"></ellipse><ellipse cx="440.14" cy="58.72" rx="14.96" ry="11.46" transform="matrix(0.98, -0.21, 0.21, 0.98, -2.68, 91.58)" style="fill:#f0f0f0"></ellipse></g><g id="freepik--Character--inject-318"><polygon points="239.81 408.37 231.23 408.24 230.74 388.32 239.32 388.45 239.81 408.37" style="fill:#ffb573"></polygon><polygon points="294.85 408.4 286.26 408.4 282.91 388.51 291.5 388.51 294.85 408.4" style="fill:#ffb573"></polygon><path d="M285.26,406.47h10.47a.82.82,0,0,1,.77.59l2.19,7.63a1.18,1.18,0,0,1-1.16,1.53c-3.37-.06-5.84-.25-10.09-.25-2.61,0-7.21.27-10.82.27s-4.31-3.57-2.85-3.89c6.52-1.45,8.13-3.44,10.13-5.35A2,2,0,0,1,285.26,406.47Z" style="fill:#263238"></path><path d="M231,406.31l9.36.15a.64.64,0,0,1,.65.59l.73,7.66a1.41,1.41,0,0,1-1.43,1.51c-3.37-.11-8.22-.38-12.47-.45-5-.08-6.31.13-12.13,0-3.52-.05-4-3.63-2.53-3.93,6.89-1.36,9.42-1.44,15.67-4.92A4.36,4.36,0,0,1,231,406.31Z" style="fill:#263238"></path><path d="M234.43,156c-.61,5.9-1.36,11.75-2.2,17.62s-1.81,11.7-2.91,17.56c-.28,1.49-.54,2.89-.87,4.45-.19.82-.38,1.65-.59,2.45l-.71,2.35a72.48,72.48,0,0,1-3.58,8.75q-2,4.17-4.38,8.08a87.11,87.11,0,0,1-5.13,7.59l-5.59-3.21c2-5.35,4.08-10.81,5.71-16.18.82-2.69,1.55-5.36,2.1-8l.36-1.94.26-1.88.51-4.28c1.31-11.58,2.54-23.29,4.08-34.88Z" style="fill:#ffb573"></path><path d="M235.51,148.35c5.62,6,2.89,30.09,2.89,30.09L217,167.93a133,133,0,0,1,2.29-13.55C220.74,147.21,230,142.53,235.51,148.35Z" style="fill:#6BBCFF"></path><path d="M235.51,148.35c5.62,6,2.89,30.09,2.89,30.09L217,167.93a133,133,0,0,1,2.29-13.55C220.74,147.21,230,142.53,235.51,148.35Z" style="fill:#fff;opacity:0.30000000000000004"></path><path d="M210.51,218.54l-7.24,6.77,8,5.61s6.28-4.5,3.89-10.28Z" style="fill:#ffb573"></path><path d="M203.59,233.16l1.94.51a3.37,3.37,0,0,0,3.38-1l2.36-1.75-8-5.61-1.82,3A3.39,3.39,0,0,0,203.59,233.16Z" style="fill:#ffb573"></path><polygon points="230.75 388.32 231 398.59 239.58 398.73 239.33 388.46 230.75 388.32" style="opacity:0.2"></polygon><polygon points="291.5 388.52 282.91 388.52 284.64 398.77 293.23 398.77 291.5 388.52" style="opacity:0.2"></polygon><path d="M270.77,149.68c-2.23,31.19,4.16,60.9,4.43,67.45l-45.76,4c-10.5-36.12-8.4-60.23-6.82-69.61a7.22,7.22,0,0,1,5-5.74c.78-.24,1.65-.49,2.58-.74,1.22-.33,2.54-.65,3.92-.95.76-.17,1.54-.32,2.33-.47A171,171,0,0,1,256,141.9c1.23-.05,2.48-.06,3.7-.06s2.24,0,3.29.07l.89,0A7.23,7.23,0,0,1,270.77,149.68Z" style="fill:#6BBCFF"></path><path d="M270.77,149.68c-2.23,31.19,4.16,60.9,4.43,67.45l-45.76,4c-10.5-36.12-8.4-60.23-6.82-69.61a7.22,7.22,0,0,1,5-5.74c.78-.24,1.65-.49,2.58-.74,1.22-.33,2.54-.65,3.92-.95.76-.17,1.54-.32,2.33-.47A171,171,0,0,1,256,141.9c1.23-.05,2.48-.06,3.7-.06s2.24,0,3.29.07l.89,0A7.23,7.23,0,0,1,270.77,149.68Z" style="fill:#fff;opacity:0.4"></path><path d="M270.3,163.72l-6.94-.75a18.07,18.07,0,0,0,7.16,10.42C270.38,170.25,270.31,167,270.3,163.72Z" style="fill:#6BBCFF;opacity:0.30000000000000004"></path><path d="M252.13,120.16c-.69,6.36-.92,17.94,3.82,21.74-3.11,3.67-7.22,8-14.63,8.87s-6.55-4.32-4.82-7.19c6.83-2.27,6.21-7.43,4.57-12.19Z" style="fill:#ffb573"></path><path d="M241.34,157.58c0,.86-.4,1.54-.86,1.54s-.82-.71-.81-1.56.4-1.54.85-1.53S241.35,156.73,241.34,157.58Z" style="fill:#fff"></path><path d="M241.41,164.58c.07.85-.25,1.57-.71,1.61s-.88-.63-.95-1.48.26-1.57.72-1.61S241.35,163.73,241.41,164.58Z" style="fill:#fff"></path><path d="M247.62,124.74l-6.55,6.64a19.66,19.66,0,0,1,.9,3.4c2.64-.61,6.05-3.86,6.09-6.67A9.49,9.49,0,0,0,247.62,124.74Z" style="opacity:0.2"></path><path d="M228.32,106.45s5.51-2.58,10.59-1.85c6.8,4.5.24,7.8-3.66,16.09-5.19,2.49-3.36-.15-3.36-.15S224.31,116.13,228.32,106.45Z" style="fill:#263238"></path><path d="M252.06,110.67c.21,8.52.77,13.5-3.13,18.22-5.88,7.1-16.68,4.13-19.43-4.16-2.48-7.46-2.41-20.14,5.59-24.23A11.63,11.63,0,0,1,252.06,110.67Z" style="fill:#ffb573"></path><path d="M244,104.11s4.67-3.9,9.77-4.49c7.73,2.62,2.22,7.48.55,16.49-4.38,3.74-3.28.72-3.28.72S242.53,114.49,244,104.11Z" style="fill:#263238"></path><path d="M245.63,105.11c-2.22,1.86-13.36,6.31-20.19,1-4-3.13-3.29-10.6,2.62-12.09-.42,1.2,1.47,4.83,7.85,2.33,6.06-2.36,19.12-3,18.37,5S245.63,105.11,245.63,105.11Z" style="fill:#263238"></path><path d="M251.91,99.71s3.4-1.66,4.44-4C257.89,100,253.94,101.1,251.91,99.71Z" style="fill:#263238"></path><path d="M256.7,119.68a8.08,8.08,0,0,1-4.73,4c-2.71.85-4.15-1.55-3.47-4.16.62-2.34,2.77-5.61,5.52-5.32S257.88,117.34,256.7,119.68Z" style="fill:#ffb573"></path><path d="M246.68,311.41c1-20.26,12.84-92.92,12.84-92.92l-30.08,2.61s-5.8,61.37-5.5,87.58c.3,27.26,3.89,86.94,3.89,86.94l14.54.22S245.6,333,246.68,311.41Z" style="fill:#263238"></path><path d="M250.66,241.38c-4.72,11.79-4.26,40.81-2.4,53.86,1.82-15.16,4.84-35.54,7.29-51.5C253.2,242.56,251.33,241.65,250.66,241.38Z" style="opacity:0.2"></path><path d="M245.67,219.69s12,67.34,17,92.28c5.42,27.32,19.07,83.88,19.07,83.88H296S288.24,337,283.3,310.31c-5.64-30.38-4.19-74.83-8.1-93.18Z" style="fill:#263238"></path><polygon points="280.08 396.19 296.94 396.19 296.58 390.66 277.52 390.3 280.08 396.19" style="fill:#6BBCFF"></polygon><polygon points="227.29 395.93 243.32 396.2 243.41 390.6 225.34 390.01 227.29 395.93" style="fill:#6BBCFF"></polygon><path d="M239.41,114.16c.06.69-.26,1.28-.71,1.32s-.87-.49-.93-1.18.26-1.28.71-1.32S239.35,113.47,239.41,114.16Z" style="fill:#263238"></path><path d="M231.61,114.83c.06.69-.26,1.28-.71,1.32s-.87-.49-.93-1.18.26-1.28.71-1.32S231.55,114.14,231.61,114.83Z" style="fill:#263238"></path><path d="M234.12,115a24.91,24.91,0,0,1-2.79,6.19c1.32,1,3.35.33,3.35.33Z" style="fill:#ed893e"></path><path d="M240.89,121.1a5.7,5.7,0,0,0-4,2,.21.21,0,0,0,0,.29.22.22,0,0,0,.29,0,5.48,5.48,0,0,1,4.6-1.86.21.21,0,0,0,.21-.19.2.2,0,0,0-.19-.22A5.36,5.36,0,0,0,240.89,121.1Z" style="fill:#263238"></path><path d="M238.22,109.58a.3.3,0,0,0-.17.12.4.4,0,0,0,0,.57,4,4,0,0,0,3.6.92.39.39,0,0,0,.27-.5.4.4,0,0,0-.5-.28h0a3.19,3.19,0,0,1-2.84-.76A.4.4,0,0,0,238.22,109.58Z" style="fill:#263238"></path><path d="M230.69,109.81a.4.4,0,0,0-.35.14,3.21,3.21,0,0,1-2.67,1.23.41.41,0,0,0-.1.81,4,4,0,0,0,3.39-1.51.41.41,0,0,0-.05-.58A.43.43,0,0,0,230.69,109.81Z" style="fill:#263238"></path><path d="M282.52,408a10,10,0,0,0,2.22-.31.18.18,0,0,0,.14-.17.2.2,0,0,0-.1-.2c-.33-.2-3.21-1.9-4.13-1.41a.59.59,0,0,0-.31.57,1.32,1.32,0,0,0,.49,1.08A2.79,2.79,0,0,0,282.52,408Zm1.61-.6c-1.44.29-2.56.24-3.06-.15a.92.92,0,0,1-.32-.74c0-.16.06-.21.11-.24C281.34,406,283,406.73,284.13,407.38Z" style="fill:#6BBCFF"></path><path d="M284.7,407.67a.18.18,0,0,0,.18-.22c0-.1-.38-2.58-1.43-3.4a1.16,1.16,0,0,0-.88-.26h0a.61.61,0,0,0-.61.54c-.12.95,1.72,2.84,2.64,3.32Zm-2-3.48a.8.8,0,0,1,.48.18,5.19,5.19,0,0,1,1.18,2.69c-.92-.67-2.11-2.09-2-2.66,0,0,0-.17.28-.2h.1Z" style="fill:#6BBCFF"></path><path d="M230.12,407.48a.18.18,0,0,0,.13-.16.2.2,0,0,0-.1-.21c-.39-.21-3.81-2-4.87-1.45a.65.65,0,0,0-.34.54h0a1.12,1.12,0,0,0,.37,1c.92.85,3.39.55,4.78.3ZM225.55,406c.65-.21,2.51.53,3.86,1.2-1.9.29-3.31.18-3.83-.3a.72.72,0,0,1-.23-.65.24.24,0,0,1,.13-.22Z" style="fill:#6BBCFF"></path><path d="M230.12,407.48l0,0a.22.22,0,0,0,.09-.19c0-.09-.21-2.41-1.29-3.33a1.49,1.49,0,0,0-1.12-.36h0c-.56.05-.72.33-.76.55-.18,1,1.85,2.86,2.88,3.34A.16.16,0,0,0,230.12,407.48ZM227.68,404l.21,0h0a1.11,1.11,0,0,1,.82.28,4.74,4.74,0,0,1,1.09,2.66c-1-.65-2.42-2.13-2.31-2.71C227.49,404.17,227.51,404.08,227.68,404Zm.19-.24h0Z" style="fill:#6BBCFF"></path><path d="M270.12,148.18c1,1.08,1.8,2,2.65,3.07s1.66,2.05,2.46,3.09c1.61,2.09,3.13,4.25,4.6,6.48a69.87,69.87,0,0,1,7.55,14.67,37.32,37.32,0,0,1,1.21,4.38c.09.38.15.79.22,1.18l.1.6,0,.24c0,.18,0,.36.06.54a8,8,0,0,1,0,1.09,7.73,7.73,0,0,1-1.23,3.55,8.66,8.66,0,0,1-1.65,1.88,12.45,12.45,0,0,1-2.72,1.74,20.87,20.87,0,0,1-2.3.95,32.47,32.47,0,0,1-4.19,1.13,60.87,60.87,0,0,1-8,1.11,68.71,68.71,0,0,1-7.87.2l-.84-6.39c4.65-1.57,9.47-3,13.71-4.77,1.05-.44,2.06-.91,2.93-1.36a10.81,10.81,0,0,0,1.1-.68c.29-.2.47-.42.38-.4a1.54,1.54,0,0,0-.43.45,3.75,3.75,0,0,0-.61,1.79c0,.21,0,.42,0,.62l0,.31,0,.06v-.06l-.09-.32c-.06-.22-.1-.43-.18-.67a26,26,0,0,0-1.06-2.81A47.58,47.58,0,0,0,272.9,174c-1.17-2-2.47-3.93-3.83-5.86s-2.8-3.86-4.25-5.76l-2.22-2.82-2.21-2.71Z" style="fill:#ffb573"></path><path d="M264,141.94c7.84.13,18,16.55,18,16.55l-16.09,13.37s-8.23-7.77-11.15-15.25C251.58,148.46,254.47,141.79,264,141.94Z" style="fill:#6BBCFF"></path><path d="M264,141.94c7.84.13,18,16.55,18,16.55l-16.09,13.37s-8.23-7.77-11.15-15.25C251.58,148.46,254.47,141.79,264,141.94Z" style="fill:#fff;opacity:0.4"></path><path d="M255,140.25s-2.23,5.51-14,10.55c2.33,1.55,4,5.82,4,5.82s15.34-6.44,13.41-15.3A11,11,0,0,0,255,140.25Z" style="fill:#fff"></path><path d="M237.52,156.69s1-4.13,3.51-5.89c-1.49-1.12-4.06-4.8-3.38-7.92a10,10,0,0,0-2.81.64S231,150.4,237.52,156.69Z" style="fill:#fff"></path><path d="M256.44,200.93a1.44,1.44,0,0,1-1.35-1l-23.25-65.42a1.43,1.43,0,1,1,2.7-1L257.79,199a1.43,1.43,0,0,1-.87,1.83A1.61,1.61,0,0,1,256.44,200.93Z" style="fill:#263238"></path><ellipse cx="229.05" cy="122.43" rx="17.5" ry="21.54" transform="matrix(0.94, -0.33, 0.33, 0.94, -27.78, 83.78)" style="fill:#263238"></ellipse><ellipse cx="228.34" cy="122.68" rx="16.74" ry="21.54" transform="translate(-27.9 83.55) rotate(-19.57)" style="fill:#6BBCFF"></ellipse><path d="M217.62,126.45a4.09,4.09,0,0,1-3.12-1.56.38.38,0,0,1,.09-.54.4.4,0,0,1,.55.08,3.29,3.29,0,0,0,5.84-2.07.4.4,0,0,1,.37-.42.39.39,0,0,1,.42.37,4,4,0,0,1-2.72,3.88A4.06,4.06,0,0,1,217.62,126.45Z" style="fill:#fff"></path><path d="M233.62,120.76a4.12,4.12,0,0,1-3.12-1.56.39.39,0,0,1,.09-.54.39.39,0,0,1,.55.09,3.3,3.3,0,0,0,5.85-2.08.39.39,0,0,1,.37-.42.38.38,0,0,1,.41.37,4,4,0,0,1-2.71,3.88A4.15,4.15,0,0,1,233.62,120.76Z" style="fill:#fff"></path><path d="M225.33,133.84a.4.4,0,0,1-.4-.37,5.71,5.71,0,0,1,10.16-3.61.39.39,0,0,1-.09.55.4.4,0,0,1-.55-.09,4.92,4.92,0,0,0-8.73,3.1.4.4,0,0,1-.37.42Z" style="fill:#fff"></path><path d="M215.29,121.09a.3.3,0,0,1-.26-.16.29.29,0,0,1,.13-.39,11.15,11.15,0,0,0,5.22-7.25.29.29,0,0,1,.34-.24.3.3,0,0,1,.23.35,11.51,11.51,0,0,1-5.52,7.66A.35.35,0,0,1,215.29,121.09Z" style="fill:#fff"></path><path d="M232.84,114.38a11.33,11.33,0,0,1-7.33-2.6.29.29,0,1,1,.38-.45,11.06,11.06,0,0,0,8.62,2.33.29.29,0,1,1,.12.57A9.06,9.06,0,0,1,232.84,114.38Z" style="fill:#fff"></path><path d="M241,124.53a2,2,0,0,1-1.79-1.52,5,5,0,0,1,.57-3.38.3.3,0,0,1,.39-.11,5,5,0,0,1,2.3,2.54h0a1.87,1.87,0,0,1-1.06,2.41A1.4,1.4,0,0,1,241,124.53Zm-.84-4.33a4.08,4.08,0,0,0-.38,2.65,1.15,1.15,0,1,0,2.13-.63A4.11,4.11,0,0,0,240.19,120.2Z" style="fill:#fff"></path><path d="M248,192.39l.79,1.79a3.37,3.37,0,0,0,2.86,2l4.54.31-1.45-10.19-4.69,1.51A3.37,3.37,0,0,0,248,192.39Z" style="fill:#ffb573"></path><path d="M263.43,187.25l-8.67-1,1.45,10.19s8-.08,8.78-4.26Z" style="fill:#ffb573"></path></g></svg>